<svg width="326" height="328" viewBox="0 0 326 328" fill="none" xmlns="http://www.w3.org/2000/svg">
<g id="&#234;&#178;&#189;&#236;&#131;&#129;&#235;&#182;&#129;&#235;&#143;&#132; 1" clipPath="url(#clip0_844_1964)">
<g id="&#235;&#160;&#136;&#236;&#157;&#180;&#236;&#150;&#180; 1">
<g id="Group">
<path id="Mungyeong" d="M54.4955 113.145L59.7028 116.428L69.891 121.296L71.3626 130.692L78.4944 131.145L79.4 127.409L83.0224 126.503L82.796 120.164L79.7396 114.277L87.5505 106.58L91.173 107.259L91.8522 105.108L88.0033 100.24L90.607 86.6562L94.9087 86.2034L94.5691 75.1096L91.6258 72.2795L86.7581 70.4683L78.3811 60.5065L74.3059 59.4877L69.7778 63.4497L69.5514 70.4683L66.0421 71.6003L57.2124 67.7514L49.0618 74.6567L47.2506 72.5059L44.6469 72.0531L42.9489 79.0716L39.5528 85.4109L47.477 93.4483L42.9489 94.8067L36.836 90.3918L34.2323 92.6559L28.9118 89.2598L25.629 95.8255L21.4405 98.9952L18.384 99.3348L25.5158 107.033L23.1385 116.202L25.5158 125.598L25.2894 131.258L30.9495 133.182L34.0059 128.201L41.3641 128.881L44.8733 122.768L44.1941 119.938L48.9486 115.749L52.4579 115.296L54.4955 113.145Z" fill="currentColor" stroke="#DAAA63" strokeWidth="1.69803"/>
<path id="Sangju" d="M55.2878 190.463L58.1179 185.595L61.1744 178.576L71.3625 177.897L74.6454 168.954L79.3999 165.218L83.4752 168.275L86.9844 162.162L91.9653 156.275L88.9089 149.936L85.8524 144.955L79.8527 142.578L78.6075 131.145L71.4757 130.692L70.0041 121.296L59.8159 116.428L54.6086 113.145L52.4578 115.07L48.9485 115.523L44.6468 119.711L44.8733 123.22L41.364 128.654L34.0059 127.975L30.9494 132.956L25.7421 130.805L25.5157 124.466L23.1385 115.976L16.0067 108.278L14.6483 106.467L10.7994 110.881L11.9314 113.825L1.17725 116.202L2.64887 119.711L8.53538 122.994H13.0635L14.3087 127.862L19.2896 133.975L19.516 137.484L15.2143 140.088L14.9879 152.087L16.2331 154.917L12.9503 158.426L16.5727 163.407L17.0255 168.048L9.6674 176.312L12.0446 183.331L16.3463 184.01L19.9688 178.803L24.2705 184.236L31.1758 187.972L34.6851 184.689L40.3452 184.916L43.1752 187.519L46.7977 190.802L51.5522 189.67L55.2878 190.463Z" fill="currentColor" stroke="#DAAA63" strokeWidth="1.69803"/>
<path id="Yecheon" d="M108.04 131.597L111.549 124.353L116.304 120.843V114.051L122.19 113.145L121.964 108.957L130.341 105.448L133.624 105.221L134.756 96.2784L129.096 88.807L125.02 81.5621L119.021 81.3357L112.568 79.6377L112.795 71.4871L113.247 68.4307L109.172 63.4498L104.304 71.0343L99.3236 70.6947L94.7955 75.1096L94.4559 86.2034L90.8334 86.6562L88.2298 100.24L91.739 104.429L91.5126 107.259L87.8902 106.58L80.0792 114.278L82.6829 120.39L83.3621 126.503L79.7396 127.409L78.834 131.145L79.7396 142.125L86.1921 144.955L90.2674 139.974L91.5126 132.503L97.3991 132.277L98.8708 135.786L103.852 131.597H108.04Z" fill="currentColor" stroke="#DAAA63" strokeWidth="1.69803"/>
<path id="Yeongju" d="M154.906 93.6747L154.453 75.902L153.208 71.9399L155.358 65.1478L152.076 60.9593L144.038 61.8649V66.0534L140.189 61.0725L143.019 48.6203L146.302 38.9981L149.359 23.7158L141.548 19.9802L137.925 24.1686L129.775 24.2818L123.888 34.8096L120.492 35.9417L108.04 48.0543L105.55 54.9596L107.587 59.9405L108.832 63.563L112.908 68.5439L112.228 79.7509L118.681 81.4489L124.681 81.6753L128.756 88.9202L131.586 92.4295L142.227 91.9767L146.982 94.8067L150.038 93.2219L154.906 93.6747Z" fill="currentColor" stroke="#DAAA63" strokeWidth="1.69803"/>
<path id="Bonghwa" d="M197.583 83.5997L194.074 84.2789L189.093 79.0716L182.414 78.6188L170.528 71.3739L167.245 72.9587L165.547 69.6759L160.792 72.5059L154.113 74.6568L153.434 71.1475L155.359 65.261L152.076 61.0725L144.038 61.9781V66.1666L140.189 61.1857L143.02 48.7335L146.302 39.1113L149.359 23.829L156.943 25.7535L156.038 21.7914L162.49 14.5464L169.622 19.5273L175.848 21.2254L181.282 20.3198L185.131 12.056L190.791 15.3389L194.64 13.9804L206.979 16.8105L207.884 13.754L211.507 10.6976L216.261 11.8296L227.468 21.4518L222.94 26.6591L219.318 24.2818L211.507 28.6967L212.752 37.6397L211.054 41.8282L219.884 47.7147L222.94 55.186L217.733 59.8273L215.129 65.4874L206.865 70.9211L202.337 75.902L195.206 77.2604L196.111 80.7697L197.583 83.5997Z" fill="currentColor" stroke="#DAAA63" strokeWidth="1.69803"/>
<path id="Yeongyang" d="M243.317 98.316L246.373 89.5994L242.298 83.7129L249.429 74.77L242.977 65.827L243.203 58.8085L239.354 57.6764L237.204 61.1857L231.77 57.9028L223.167 55.2992L217.959 59.9405L215.356 65.6006L207.092 71.0343L202.564 76.0152L195.658 77.9396L196.338 80.7697L197.583 83.5997L197.356 86.2034L198.262 95.1463L198.036 110.089L200.413 115.976L205.167 116.655L209.696 124.126L217.506 125.032L221.016 129.899V132.729L225.997 132.503L235.506 134.88L237.656 131.824L239.128 120.843L235.053 114.051L238.336 106.127L237.09 100.693L239.015 98.5424L243.317 98.316Z" fill="currentColor" stroke="#DAAA63" strokeWidth="1.69803"/>
<path id=" Uljin" d="M268.9 99.7876L257.92 100.014L254.863 102.618L249.656 99.3348L243.43 98.2028L246.486 89.4863L242.411 83.5997L249.543 74.6568L243.09 65.7138L242.637 58.6953L240.034 57.5633L236.751 61.0725L231.543 57.1104L223.166 55.186L220.11 47.7147L211.28 41.8282L212.978 37.6397L211.733 28.6967L219.544 24.2818L223.619 26.4327L227.695 21.4518L235.053 21.2254L234.6 14.2068L242.184 6.73551L246.939 6.2827L251.693 0.848999H256.222L259.504 10.0184L267.542 17.7161L264.485 21.4518L265.617 31.7532L264.372 36.3945L267.202 42.7338L266.07 50.8843L267.202 60.9593L273.089 66.8458L276.371 76.9208L275.466 80.4301L276.598 84.845L275.579 94.3539L268.9 99.7876Z" fill="currentColor" stroke="#DAAA63" strokeWidth="1.69803"/>
<path id="Andong" d="M182.867 176.878L179.244 163.973L173.018 153.898L170.867 146.88L157.849 139.182L155.019 141.106L152.189 140.767L151.283 147.785L135.775 154.351L129.888 148.465L124.681 137.937L118.002 136.012L113.7 133.635L110.417 137.597L105.889 135.673V131.937L107.361 131.711L111.889 123.787L116.191 120.956V114.164L122.077 113.259L121.851 109.07L130.228 105.561L133.51 105.335L134.642 96.3916L131.812 92.4295L142.453 91.9767L147.208 94.8068L150.264 93.2219L155.019 93.6747L154.113 74.6568L160.792 72.506L165.547 69.6759L167.245 72.9588L170.528 71.3739L181.735 78.3925L189.093 79.0717L194.074 84.279L197.13 83.5998L198.262 95.1464L198.036 110.089L200.413 115.976L197.13 120.39L197.583 124.579L194.3 127.635L199.054 132.616L195.998 140.314L194.526 145.521L196.677 152.54L193.621 160.69V169.181L185.81 176.652L182.867 176.878Z" fill="currentColor" stroke="#DAAA63" strokeWidth="1.69803"/>
<path id="Uiseong" d="M109.625 173.143L103.172 181.067L93.6634 168.388L87.4372 172.35L83.5884 168.388L87.2108 161.37L91.5125 156.389L85.8524 144.955L89.9277 139.974L91.1729 132.503L97.0594 132.277L98.5311 135.786L103.512 131.597L105.889 131.824V135.559L110.417 137.484L113.7 133.522L118.002 135.899L124.681 137.824L129.435 148.351L135.661 154.238L151.17 147.672L152.076 140.654L154.906 141.106L157.736 139.182L170.754 146.88L172.452 153.445L178.678 164.2L182.753 176.878L180.15 177.331L179.697 181.746L175.622 184.576L182.074 187.406L179.697 191.142L182.753 196.009L181.848 198.16L174.49 193.972L166.905 197.934L156.151 197.707L145.397 193.519L140.642 195.217L140.189 187.746L131.133 181.633L126.379 182.538L125.134 178.123L116.757 177.218L112.229 173.029L109.625 173.143Z" fill="currentColor" stroke="#DAAA63" strokeWidth="1.69803"/>
<path id="Gumi" d="M98.3048 226.348L103.738 219.782C103.738 219.782 112.795 223.518 113.021 222.838C113.247 222.159 118.002 214.122 118.002 214.122L129.662 214.801L125.586 206.311L127.058 203.481L122.53 198.5L117.549 201.556L115.625 192.84L109.738 194.198L103.852 188.085L102.946 181.293L93.4371 168.615L87.211 172.577L83.3621 168.615L79.2868 165.558L74.5323 169.294L71.2495 178.237L61.0613 178.916L57.552 186.614L64.4573 188.765L73.0607 193.972L73.2871 198.387L79.1736 199.972L80.0792 202.575L83.7017 206.311L82.5697 212.197L82.1169 217.065L84.9469 220.122L89.0222 220.574L98.3048 226.348Z" fill="currentColor" stroke="#DAAA63" strokeWidth="1.69803"/>
<path id="Goryeong" d="M62.8723 309.325L63.3251 306.721L71.1361 301.061L68.0796 292.118L63.3251 285.326L65.0232 282.949L64.3439 278.534L71.2493 277.175L76.0038 283.288L82.9091 275.364L94.3425 280.571L100.569 271.176L106.795 269.591L115.398 274.006L114.492 277.289L106.116 277.968L103.059 284.986L101.135 288.722L108.946 295.061L108.04 301.853L96.1537 300.495L97.0593 306.608L103.285 312.494V318.834L98.9838 319.287L94.9085 313.4L89.022 310.57L78.8338 311.023L75.2113 313.626L70.2305 312.721L68.5324 310.796L62.8723 309.325Z" fill="currentColor" stroke="#DAAA63" strokeWidth="1.69803"/>
<path id="Chilgok" d="M119.7 260.308L114.04 258.61L113.587 251.818L110.304 250.233L103.625 256.12L101.927 251.931L95.9275 248.875L87.5505 241.177L87.3241 232.913L84.0413 222.612L85.1733 219.782L89.2486 220.235L98.3047 226.348L103.738 219.782L113.021 222.838L118.681 214.348L129.662 214.801L130.115 224.197L139.623 221.819L140.076 235.177L135.322 241.064L127.511 245.026L124.228 242.875L122.53 244.573L123.775 249.441L122.643 254.874L119.7 260.308Z" fill="currentColor" stroke="#DAAA63" strokeWidth="1.69803"/>
<path id="Yeongdeok" d="M261.882 180.727L248.637 180.048L249.882 172.463L246.939 169.181L242.411 169.86L236.864 163.973L236.524 157.408L232.336 148.917L227.468 147.899L224.525 142.012L224.185 133.182L225.77 132.503L235.279 134.88L236.751 132.843L238.902 120.956L234.826 114.164L238.109 106.24L236.864 100.806L238.788 98.6556L243.316 98.4292L249.543 99.5612L254.75 102.844L257.806 100.24L268.787 100.014L266.976 107.372L267.315 115.862L273.202 123.447L272.523 131.937L270.938 141.106L270.598 152.653L262.221 167.143L261.882 180.727Z" fill="currentColor" stroke="#DAAA63" strokeWidth="1.69803"/>
<path id="Cheongsong" d="M211.62 192.84L214.224 188.538L208.111 183.557L211.733 181.293L222.487 184.236L229.619 192.161L237.43 179.708V174.161L242.637 169.86L237.09 163.973L236.751 157.407L232.562 148.917L227.695 147.898L224.751 140.993L224.412 133.069L221.016 132.616V129.786L217.506 124.918L209.695 124.013L205.167 116.542L200.413 115.862L197.13 120.277L197.583 124.466L194.3 127.522L199.054 132.503L194.526 145.408L196.677 152.427L193.621 160.577V169.067L185.81 176.539L180.15 177.218L179.697 181.633L175.622 184.463L182.074 187.293L179.697 191.029L182.753 195.896L181.848 198.047L183.546 201.33L190.677 202.009L196.564 204.613L204.035 200.651L207.318 193.745L211.62 192.84Z" fill="currentColor" stroke="#DAAA63" strokeWidth="1.69803"/>
<path id="Pohang" d="M246.939 220.461L241.392 221.14L239.807 226.121L232.676 228.046L227.468 224.084L223.619 223.065L222.94 220.121L217.393 215.82V212.877L213.205 212.537L209.582 206.65L197.923 204.386L204.036 200.764L207.318 193.859L211.507 192.84L214.111 188.538L207.998 183.557L211.62 181.293L222.374 184.236L229.506 192.161L237.317 179.708V174.161L242.524 169.86L247.052 169.181L249.996 172.463L248.75 180.048L261.995 180.727L263.24 186.614L265.165 188.312L262.901 193.519L261.316 194.198L262.561 196.802L265.844 199.745L266.863 206.99L272.749 212.537L271.164 215.82L263.353 223.744L267.542 229.63L270.485 233.932L277.277 237.555L280.9 232.347L285.088 229.404L292.56 217.857L295.163 220.461L296.748 230.31L293.126 238.8L291.541 246.045L286.333 249.328L288.937 258.497L288.597 266.761L286.333 270.044L278.522 265.742L272.41 259.176L269.466 264.157L261.316 263.478L260.297 259.176L257.693 255.893L253.165 241.064L246.373 230.536L248.637 222.612L246.939 220.461Z" fill="currentColor" stroke="#DAAA63" strokeWidth="1.69803"/>
<path id="Yeongcheon" d="M194.413 271.062L185.357 269.704L179.81 263.138L180.489 259.176L178.225 254.195L177.546 246.271L169.169 243.781L164.641 240.158L158.189 241.177L156.604 236.536L151.623 235.064L152.528 223.857L158.528 215.933L170.188 219.442L175.848 210.273L184.678 208.688L183.772 201.217L190.904 201.896L196.79 204.5L209.809 206.424L213.431 212.31L217.62 212.65L217.959 216.612L223.167 219.895L223.846 222.838L225.091 223.857L223.846 228.159L225.091 235.064L221.242 234.045L218.978 232.687L220.902 244.799L225.091 250.686L221.468 252.044L218.186 248.422H212.073L207.545 256.346L206.865 265.855L199.394 271.742L194.413 271.062Z" fill="currentColor" stroke="#DAAA63" strokeWidth="1.69803"/>
<path id="Gyeongsan" d="M190.225 285.779L185.017 286.797L178.225 289.401L167.811 290.08L162.943 299.589L155.811 295.627L150.944 290.08L152.528 286.458L151.283 282.156L155.472 278.873V272.647L157.396 267.666L161.924 265.063V255.214L158.641 252.95L157.962 241.177L164.415 240.158L168.037 243.781L177.433 246.384L178.112 254.308L180.376 259.289L179.697 263.251L185.244 269.817L195.658 271.515L194.413 278.421L190.225 285.779Z" fill="currentColor" stroke="#DAAA63" strokeWidth="1.69803"/>
<path id="Cheongdo" d="M146.415 321.89L139.284 325.173L127.284 315.324L124.681 308.419L123.662 303.438L124.681 297.891L130.567 293.25L139.963 293.59L139.284 299.476L148.34 296.193L150.944 289.967L154.566 294.608L162.943 299.589L167.811 290.08L175.961 289.062L185.017 286.798L190.225 285.779L194.413 278.194L195.658 271.289L199.281 271.968L205.167 267.666L201.545 276.157L198.262 286.684L204.715 298.797L207.658 300.495L211.28 311.023L204.488 313.626L199.96 317.928L195.432 313.287L189.885 311.023L181.735 313.966L178.452 320.871L171.32 321.211L167.697 326.192L158.302 325.173L151.51 322.909L146.415 321.89Z" fill="currentColor" stroke="#DAAA63" strokeWidth="1.69803"/>
<path id="Gyeongju" d="M261.882 301.514L252.486 307.74L246.599 306.042L245.92 296.873L237.543 294.608L228.827 294.948L227.242 293.59L223.393 296.873L217.28 297.891L213.092 306.381L216.94 311.023L211.393 310.004L207.771 300.495L204.828 298.797L198.375 286.684L205.167 267.666L206.752 265.968L207.431 256.459L211.959 248.535H218.072L221.355 252.158L224.978 250.799L220.789 244.913L218.865 232.8L224.751 234.159L223.733 228.272L224.978 223.97L228.6 224.31L232.789 227.932L239.92 226.008L241.505 221.027L247.052 220.348L248.637 223.97L246.373 230.536L253.165 241.064L257.693 255.893L260.297 259.176L261.316 263.478L269.466 264.157L272.409 259.176L278.522 265.742L286.333 270.044L287.012 273.666L283.39 277.968L282.711 289.514L280.447 297.439L280.786 301.061L275.239 307.287L261.882 301.514Z" fill="currentColor" stroke="#DAAA63" strokeWidth="1.69803"/>
<path id="Ulleung" d="M307.502 163.294L303.314 162.954L300.37 164.879L295.503 168.162L289.956 168.501L286.333 169.18L287.918 172.463L289.163 175.746V178.35L299.578 182.312L300.597 179.708L305.804 176.086L306.144 168.162L307.502 163.294ZM321.765 180.387L320.181 183.67L322.784 185.029L324.369 181.746L321.765 180.387Z" fill="currentColor" stroke="#DAAA63" strokeWidth="1.69803" strokeMiterlimit="10"/>
<path id="Gimcheon" d="M50.8731 265.968L47.8166 272.308L39.1001 274.119L34.3456 269.251L26.3082 269.704L24.8366 263.817L17.9313 261.44L17.4785 253.969L22.4594 250.12L16.2332 240.271L16.0068 235.29L21.4405 229.404L29.8175 226.574L31.7419 214.801L35.5908 209.141L33.8928 205.179L32.6475 199.745L36.7228 198.613L42.3829 200.764L46.5714 200.198L40.9113 190.576L43.2885 187.519L46.911 190.802L51.6655 189.67L54.9484 190.123L57.7784 186.161L63.7781 188.085L73.2871 193.519L73.5135 197.934L79.4 199.519L80.3056 202.122L83.9281 205.858L82.7961 211.744L82.3433 216.612L85.1733 219.669L84.0413 222.499L85.9657 227.932H72.3815L68.0798 232.347L63.5517 233.253V240.498L59.0236 246.611L55.4012 248.196L51.5523 254.988L48.4958 251.931L45.213 252.384L50.8731 265.968Z" fill="currentColor" stroke="#DAAA63" strokeWidth="1.69803"/>
<path id="Seongju" d="M65.0233 282.836L63.3252 285.213L59.5896 283.175L56.0803 275.477L47.8165 272.195L50.873 265.855L45.2129 252.271L48.4958 251.818L51.5522 254.875L55.4011 248.082L59.7028 245.705L63.5516 240.498V233.253L68.0797 232.347L72.3814 227.932H85.9657L87.8901 233.366L87.4373 241.064L96.4934 249.441L101.927 251.818L103.625 256.007L100.569 262.572V272.195L94.3426 281.137L87.2109 277.855L82.6828 275.704L76.0039 283.175L71.2494 277.062L64.344 278.421L65.0233 282.836Z" fill="currentColor" stroke="#DAAA63" strokeWidth="1.69803"/>
</g>
</g>
</g>
<defs>
<clipPath id="clip0_844_1964">
<rect width="325.49" height="327.086" fill="white"/>
</clipPath>
</defs>
</svg>
