<svg width="326" height="317" viewBox="0 0 326 317" fill="none" xmlns="http://www.w3.org/2000/svg">
<g id="&#234;&#178;&#189;&#236;&#131;&#129;&#235;&#130;&#168;&#235;&#143;&#132; 1" clipPath="url(#clip0_844_1795)">
<g id="&#235;&#160;&#136;&#236;&#157;&#180;&#236;&#150;&#180; 1">
<g id="Group">
<path id="Geochang" d="M19.519 35.7512L26.7632 41.2514L27.5681 45.9467L35.2147 43.6661L40.5807 49.837L47.8249 56.008L53.5933 62.1789L58.1545 60.9716L58.5569 73.0451L52.386 83.1064L58.9594 86.5944L60.8375 93.1677L74.2526 97.863L77.7405 88.4725L82.3016 78.6795L84.9846 66.2034L93.8386 56.8129L99.607 55.2031L96.1191 44.7393L92.6312 33.0682L91.4239 30.3852L101.083 19.1165L97.1923 16.836L85.6554 19.2507L79.082 13.6163L70.4963 14.0188L68.7524 7.04296L60.5692 4.22579L60.3009 1.27448L55.7397 2.48183L52.6543 9.45767L41.9222 16.836L31.9951 18.0433L29.312 27.0314L19.519 35.7512Z" fill="currentColor" stroke="#DAAA63" strokeWidth="2.01226"/>
<path id="Hapcheon" d="M102.961 132.34L94.9119 121.474H89.1434L79.887 106.717L74.521 96.924L82.57 79.0819L85.2531 66.6059L94.107 57.2153L99.8755 55.6055L92.8997 34.5439L91.6923 30.6535L101.351 19.3848L105.912 21.3971L110.071 30.5193L114.632 32.7999L120.266 40.8489L123.888 51.4468L114.632 58.1544L115.571 60.9716L121.071 62.9838L123.084 65.2644L128.986 66.3376L133.279 63.2521L145.353 62.7155L152.328 66.0693L157.158 73.0451L153.938 77.6062L154.341 85.387L151.658 89.6798L155.951 96.6557V101.351L140.255 97.863L130.596 104.436L123.352 107.119L122.547 117.181L120.669 125.766L111.815 126.571L102.961 132.34Z" fill="currentColor" stroke="#DAAA63" strokeWidth="2.01226"/>
<path id="Changnyeong" d="M160.914 109.4L166.683 103.229L159.438 97.3264L155.951 96.924L151.658 89.9481L153.938 83.7772L153.536 76.8014L157.158 73.4476L162.256 72.911L171.244 67.0084L183.317 66.6059L184.793 58.0202L185.866 55.7397L187.342 60.435L189.22 66.6059L204.647 80.2893L199.684 82.5698L200.891 88.7408L197.001 92.2287L199.281 97.3264L197.403 102.022L199.281 109.802L207.33 111.412L212.696 118.791L211.891 129.254L201.562 125.766L196.196 128.852L185.061 124.157L177.817 128.852L170.171 127.644L168.963 120.669L159.304 116.778L160.914 109.4Z" fill="currentColor" stroke="#DAAA63" strokeWidth="2.01226"/>
<path id="Miryang" d="M241.27 135.023L253.612 125.23L260.588 117.449L266.759 117.852L264.881 111.278L274.54 107.79L274.137 97.3264L278.699 88.7408L276.15 86.4602V82.0333L284.199 77.338L285.406 71.4353L282.186 66.6059L276.82 71.7036L271.454 66.2035L264.881 63.5204L255.222 67.0084L250.259 75.1916L242.612 76.8014L238.722 81.4967L227.587 80.2893L213.367 76.3989L199.952 82.5699L201.159 88.7408L197.269 92.2287L199.55 97.3264L197.671 102.022L199.55 109.802L207.599 111.412L212.965 118.791L212.16 128.181L219.404 128.584L228.258 136.767L241.27 135.023Z" fill="currentColor" stroke="#DAAA63" strokeWidth="2.01226"/>
<path id=" Yangsan" d="M307.675 130.328L305.394 145.084L287.016 152.865L276.686 144.682L275.479 138.108L267.027 131.535L258.173 130.73L255.893 123.352L260.454 117.449L266.625 117.851L264.747 111.278L274.406 107.79L274.003 97.3264L278.564 88.7408L283.93 93.0336L293.857 94.241L301.504 99.7411L311.297 113.559L319.883 113.022L324.31 118.925L321.224 124.827L319.883 130.73L315.322 133.815L310.76 130.328H307.675Z" fill="currentColor" stroke="#DAAA63" strokeWidth="2.01226"/>
<path id="Gimhae" d="M243.148 183.317L231.209 179.024L230.807 170.841L227.721 170.036L226.245 161.048L220.074 146.694L227.721 141.596L229.599 144.279L234.563 136.096L241.136 134.889L255.759 123.218L258.039 129.388L266.893 131.401L275.345 137.974L276.552 144.548L285.406 151.523L281.918 160.511L271.186 164.804L267.296 168.695C267.296 168.695 260.32 169.097 259.246 169.097C258.173 169.097 256.161 176.073 256.161 176.073L256.563 181.573L251.197 178.89L248.514 182.378L243.148 183.317Z" fill="currentColor" stroke="#DAAA63" strokeWidth="2.01226"/>
<path id="Changwon" d="M197.672 133.547L195.123 137.303L195.525 142.535L198.342 145.218V149.511L200.489 155.95L193.245 154.743L185.732 158.231L182.647 155.145L180.5 159.841L176.878 166.816L180.366 172.719L179.427 176.609L174.598 176.744L171.378 182.378L166.146 178.353L163.463 172.719L158.097 176.073L156.621 189.756L154.341 194.988L160.646 197.269L166.28 201.964L170.707 202.366L174.195 205.72L178.622 202.635L174.061 198.342L176.207 196.196L182.781 198.476L185.598 197.269L189.488 194.317L194.049 199.549L198.342 200.757L196.196 205.586L200.757 206.123L199.415 208.806L207.733 207.464L209.208 203.171L206.391 200.891L205.855 198.208L201.964 189.622L202.903 185.732L199.818 181.439L197.269 177.012L201.696 172.719L204.245 178.756L207.465 184.927V188.415L211.087 185.463L216.05 188.146L220.075 185.463L222.221 191.634L220.075 196.732L226.246 199.281L233.356 198.879L240.331 195.391L240.868 200.622L247.173 199.013L251.198 195.525L250.393 191.098L243.819 186.805L242.478 183.049L231.343 179.024L230.941 170.841L227.855 170.036L226.38 161.048L220.477 147.365L227.99 141.462L229.868 144.145L234.831 135.962L228.258 136.364L218.867 128.449L212.16 127.913V129.12L201.83 125.632L196.464 128.718L197.672 133.547Z" fill="currentColor" stroke="#DAAA63" strokeWidth="2.01226"/>
<path id="Haman" d="M141.328 161.719L137.974 159.438L143.609 153.67L142.804 148.17L145.084 141.73L147.633 133.95L152.463 135.828L157.024 139.181L162.39 138.913L161.317 135.023L167.488 134.754L169.5 128.315L177.549 128.852L184.793 124.157L195.257 129.657L197.269 133.547L195.525 136.901L194.72 141.596L197.269 145.755L197.94 149.511L200.086 155.95L192.171 154.877L185.732 157.426L182.244 155.145L177.012 166.816L179.829 172.719L178.89 176.609L174.061 176.744L170.841 182.378L165.609 178.353L163.061 173.524L157.426 175.939L152.194 172.451H147.633L141.328 161.719Z" fill="currentColor" stroke="#DAAA63" strokeWidth="2.01226"/>
<path id="Uiryeong" d="M123.218 157.828L118.925 151.657L119.73 143.072L113.559 138.377L108.461 143.072L103.095 139.718V132.34L111.949 126.84L120.803 126.035L122.681 117.449L123.486 107.388L130.73 104.705L140.389 98.1313L156.085 101.619V96.924L159.572 97.3264L166.817 103.229L161.048 109.4L160.109 115.839L169.097 120.669L170.304 127.644L167.89 134.754L161.719 135.023L162.792 138.913L157.426 139.181L153.267 136.096L147.901 134.486L143.072 148.17L143.877 153.67L139.316 159.17L129.389 159.707L123.218 157.828Z" fill="currentColor" stroke="#DAAA63" strokeWidth="2.01226"/>
<path id="Sancheong" d="M59.8986 160.243L53.4594 168.292H40.8492L34.1417 161.585L25.4219 156.084L25.9585 143.608L32.666 137.84L43.2639 113.559L46.7518 106.985L47.8251 98.1313L49.4349 93.3019L55.2033 84.7162L59.0937 86.7285L60.9718 93.3019L74.3869 97.9972L88.2044 120.669L94.7778 121.339L102.29 131.267L102.827 139.584L96.1193 142.401L94.6437 147.365L87.2654 148.974L80.2895 157.56L78.009 162.792H69.0209L67.0086 168.56L63.9231 168.024L62.1792 162.255L59.8986 160.243Z" fill="currentColor" stroke="#DAAA63" strokeWidth="2.01226"/>
<path id="Jinju" d="M118.522 199.415L114.229 194.452L104.436 198.074L101.083 193.915L95.985 191.634L86.9969 195.257L83.1065 184.659L73.3135 184.927L69.6914 179.024L63.5205 175.134L63.2522 168.426L66.8743 168.695L68.8865 162.926H77.8746L80.1552 157.694L87.131 149.109L94.5093 147.499L95.985 142.535L102.693 139.718L108.059 143.072L113.156 138.377L119.327 143.072L118.254 150.584L122.413 157.024L128.852 159.572L137.84 159.304L141.194 161.182L148.17 172.317H152.731L157.963 175.805L156.487 189.488L154.072 193.378L133.279 192.573L126.571 195.391L122.681 201.293L127.51 204.11L122.144 209.342L115.169 204.915L118.522 199.415Z" fill="currentColor" stroke="#DAAA63" strokeWidth="2.01226"/>
<path id="Goseong" d="M106.985 241.404L114.364 225.306L118.522 224.501L116.778 216.452L122.413 212.83V209.476L127.242 204.245L122.949 201.427L126.84 195.525L133.547 192.708L154.743 193.244L154.341 194.854L160.646 197.135L166.28 201.83L171.512 202.769L174.195 205.452L170.17 206.659L162.256 208.672L159.17 214.172L156.89 220.343L163.06 214.172L166.414 211.086L170.707 210.818L175.268 207.196L178.085 206.123L175.536 211.355L181.171 215.513L180.903 221.684L172.183 223.965L167.085 222.892L166.817 224.904L172.988 227.184L163.731 230.002L160.109 234.429L153.938 237.246L150.316 233.087L146.426 236.441L143.609 245.026L139.047 244.49L136.23 237.246L126.303 237.782L125.767 246.636H111.681L106.315 244.624L106.985 241.404Z" fill="currentColor" stroke="#DAAA63" strokeWidth="2.01226"/>
<path id="Sacheon" d="M71.1673 187.476L64.9964 186.671C64.9964 186.671 61.6426 189.488 62.4475 189.756C63.2524 190.025 68.0818 195.525 68.0818 195.525L67.2769 201.293L69.8258 208.269L71.1673 217.391V222.623L76.8016 228.526L79.0822 225.977L85.5214 226.514L88.6069 220.343L81.631 215.111L84.9848 212.294L88.6069 215.647L90.3509 206.793L96.5218 201.293L93.168 211.891L92.3631 218.599L95.4486 220.209L91.2899 225.44L94.1071 227.721L90.7533 233.892L96.6559 240.331L106.181 244.758L106.449 241.404L114.364 225.306L118.523 224.501L117.449 216.452L122.01 211.757L122.279 209.476L115.303 205.049L118.388 199.818L114.096 194.317L104.303 197.94L101.485 194.317L95.851 191.5L87.6678 194.586L82.5701 184.793H73.3137L71.1673 187.476Z" fill="currentColor" stroke="#DAAA63" strokeWidth="2.01226"/>
<path id="Hadong" d="M8.92125 143.608L1.27466 150.584L4.09182 155.548L11.4701 165.341L10.3969 178.085L23.4095 190.025L24.4827 199.415L32.1293 205.586L34.1416 209.745L38.3003 211.623L40.3125 220.209L43.1297 219.94L42.0565 225.843L38.4344 229.465L41.2516 235.636L49.9714 236.977L54.2642 234.16L56.0082 236.709L64.9963 234.429L69.1549 227.184V219.94L71.1672 219.135L69.6915 208.269L67.1427 201.293L67.9476 195.525L61.5083 189.354L64.8621 186.805L71.0331 187.073L73.3136 185.061L69.6915 179.158L63.5206 175.268L63.2523 168.561L61.9108 162.658L59.6302 160.646L53.191 168.695L40.5808 167.89L33.8733 161.987L25.1535 156.487L25.6901 144.011L10.6652 141.999L8.92125 143.608Z" fill="currentColor" stroke="#DAAA63" strokeWidth="2.01226"/>
<g id="Namhae">
<path d="M71.1672 244.49L68.35 238.99L62.1791 236.977L56.2764 240.599C56.2764 240.599 57.3497 245.831 56.5448 245.295C55.7398 244.758 52.2519 245.026 52.2519 245.026L51.1787 253.344L47.825 257.234L52.1178 267.027L55.4715 276.686L55.2032 282.454L53.7276 285.003L60.7034 290.235L67.1427 289.699L67.411 282.186L72.5087 278.832L76.8015 280.174V289.967L81.3626 295.199L88.0702 292.113L92.363 296.54L95.7168 294.528L93.4362 290.638L97.729 284.869L96.6558 277.625L97.1924 271.454L94.6436 267.027L89.8141 265.417L81.8992 267.295L75.7283 271.186L73.9844 266.49L69.8257 261.259L67.0085 251.868L71.3013 247.441L71.1672 244.49Z" fill="currentColor"/>
<path d="M91.424 242.746L84.4481 244.087L78.8138 252.673L81.0943 261.795H93.4362L99.6071 263.673L97.5949 257.905L98.9364 252.941L92.7655 248.514L89.9483 255.222L89.1434 249.453L90.8873 246.368L91.424 242.746Z" fill="currentColor"/>
<path d="M71.1672 244.49L68.35 238.99L62.1791 236.977L56.2764 240.599C56.2764 240.599 57.3497 245.831 56.5448 245.295C55.7398 244.758 52.2519 245.026 52.2519 245.026L51.1787 253.344L47.825 257.234L52.1178 267.027L55.4715 276.686L55.2032 282.454L53.7276 285.003L60.7034 290.235L67.1427 289.699L67.411 282.186L72.5087 278.832L76.8015 280.174V289.967L81.3626 295.199L88.0702 292.113L92.363 296.54L95.7168 294.528L93.4362 290.638L97.729 284.869L96.6558 277.625L97.1924 271.454L94.6436 267.027L89.8141 265.417L81.8992 267.295L75.7283 271.186L73.9844 266.49L69.8257 261.259L67.0085 251.868L71.3013 247.441L71.1672 244.49Z" stroke="#DAAA63" strokeWidth="2.01226"/>
<path d="M91.424 242.746L84.4481 244.087L78.8138 252.673L81.0943 261.795H93.4362L99.6071 263.673L97.5949 257.905L98.9364 252.941L92.7655 248.514L89.9483 255.222L89.1434 249.453L90.8873 246.368L91.424 242.746Z" stroke="#DAAA63" strokeWidth="2.01226"/>
</g>
<path id="Tongyeong" d="M174.732 247.844L169.366 253.344L163.731 256.698L161.987 261.124L166.28 262.466L170.439 263.539L173.256 259.649L176.073 253.478L178.622 250.929L174.732 247.844ZM157.829 260.32L153.67 261.929L155.146 268.637L163.865 278.027L170.573 269.71L163.195 266.893L157.829 260.32ZM181.037 269.442L177.415 273.064L180.5 281.113L183.854 277.491L181.037 269.442ZM177.683 286.613L175.402 294.126L179.695 289.967L177.683 286.613ZM173.39 230.27L170.036 234.697L170.305 240.868L168.829 248.38L164.268 254.551L160.646 250.661L157.292 253.478L147.365 249.319L147.633 245.429L156.621 244.624L154.072 237.38L160.243 234.563L163.329 229.599L173.122 227.318L173.39 230.27ZM129.12 257.771H119.596L124.693 264.478L128.047 260.588L129.12 257.771ZM133.682 263.942L127.242 265.283L135.157 273.064L139.718 269.71L133.682 263.942ZM136.499 308.882L132.877 309.419L133.682 314.919L140.121 314.114L136.499 308.882ZM121.34 293.052L119.327 296.674L124.425 299.76L125.901 296.406L121.34 293.052Z" fill="currentColor" stroke="#DAAA63" strokeWidth="2.01226"/>
<path id="Hamyang" d="M33.3366 137.437L26.0925 143.608L11.2017 141.596L8.11627 136.498L8.92118 129.925L16.9702 122.547L19.6532 115.571L13.8848 113.29L12.4091 107.119L15.0921 102.424L9.32363 91.9604L2.75024 84.9845L7.31137 81.4966L8.78703 76.3989L12.6774 72.5085L9.59193 63.5204L12.6774 54.9348L17.2385 51.0444L18.7142 40.9831L19.5191 35.8854L26.7632 41.3856L27.5681 46.0808L35.2147 43.8003L39.5076 48.898L47.9591 56.2763L53.7275 62.4472L58.2887 61.2399L58.6911 73.3134L52.5202 83.3747L55.2032 84.9845L49.4347 93.5702L47.5566 99.7411L46.7517 106.315L43.2638 113.693L33.3366 137.437Z" fill="currentColor" stroke="#DAAA63" strokeWidth="2.01226"/>
<g id="Geoje">
<path d="M197.403 245.563L190.293 241.404L186.671 244.222L181.037 250.661L181.573 258.441L185.732 261.527L187.073 265.686L188.817 263.405L194.988 261.125L199.818 258.039L204.111 264.478L201.293 269.71L196.196 273.869L196.464 278.296L201.293 277.223L200.488 281.918L202.769 285.003L203.842 286.613L200.757 291.577L203.306 293.187L212.294 290.906L210.013 287.284L213.099 286.747L217.66 288.357L219.94 285.003L214.038 282.723L213.501 275.747L217.66 272.93L217.123 268.234L225.038 267.966L228.928 271.588L233.221 271.857L230.136 266.356L224.77 264.076L226.111 259.649L230.941 259.381L230.136 256.563L232.953 253.21L232.416 248.246L227.587 252.673L224.501 247.709L227.855 240.197L227.319 231.611L223.026 229.331L222.221 222.087L227.05 217.928V214.038L219.135 214.306L218.599 219.806L215.782 225.575L211.221 230.538L206.659 230.27L202.769 237.514L207.598 246.368L202.769 242.478L197.403 245.563Z" fill="currentColor"/>
<path d="M190.293 228.66L187.476 230.672L187.744 236.843C187.744 236.843 192.842 238.721 192.842 237.112V232.416L191.098 232.148L190.293 227.989M190.293 241.404L197.403 245.563L202.769 242.478L207.598 246.368L202.769 237.514L206.659 230.27L211.221 230.538L215.782 225.575L218.599 219.806L219.135 214.306L227.05 214.038V217.928L222.221 222.087L223.026 229.331L227.319 231.611L227.855 240.197L224.501 247.709L227.587 252.673L232.416 248.246L232.953 253.21L230.136 256.563L230.941 259.381L226.111 259.649L224.77 264.076L230.136 266.356L233.221 271.857L228.928 271.588L225.038 267.966L217.123 268.234L217.66 272.93L213.501 275.747L214.038 282.723L219.94 285.003L217.66 288.357L213.099 286.747L210.013 287.284L212.294 290.906L203.306 293.187L200.757 291.577L203.842 286.613L202.769 285.003L200.488 281.918L201.293 277.223L196.464 278.296L196.196 273.869L201.293 269.71L204.111 264.478L199.818 258.039L194.988 261.125L188.817 263.405L187.073 265.686L185.732 261.527L181.573 258.441L181.037 250.661L186.671 244.222L190.293 241.404Z" stroke="#DAAA63" strokeWidth="2.01226"/>
</g>
</g>
</g>
</g>
<defs>
<clipPath id="clip0_844_1795">
<rect width="325.49" height="316.046" fill="white"/>
</clipPath>
</defs>
</svg>
