<svg width="326" height="461" viewBox="0 0 326 461" fill="none" xmlns="http://www.w3.org/2000/svg">
<g id="&#236;&#132;&#184;&#236;&#162;&#133;&#237;&#138;&#185;&#235;&#179;&#132;&#236;&#158;&#144;&#236;&#185;&#152;&#236;&#139;&#156; 2">
<g id="&#235;&#160;&#136;&#236;&#157;&#180;&#236;&#150;&#180; 1">
<g id="Group">
<path id="Geumnam" d="M185.903 436.904C186.177 437.816 186.268 438.272 186.359 438.636C186.724 439.822 186.359 440.551 185.083 440.916C182.986 441.463 180.889 442.466 178.883 442.283C176.148 442.101 173.868 442.557 171.315 443.195C169.583 443.651 167.486 442.01 165.48 441.645C162.836 441.098 160.192 440.551 157.457 440.277C156.18 440.186 154.813 440.824 153.628 441.371C151.804 442.192 150.984 443.742 151.439 445.839C151.713 446.933 151.804 448.118 151.713 449.212C151.713 450.945 150.345 452.039 148.613 452.312C147.337 452.495 145.969 452.768 144.784 453.133C143.234 453.589 142.413 453.133 141.502 451.583C139.952 448.757 137.855 446.204 135.758 443.742C134.481 442.283 133.934 441.098 134.755 439.274C135.575 437.633 134.299 437.451 133.205 437.36C130.834 437.178 128.373 437.36 126.002 436.995C123.996 436.722 122.264 436.083 121.352 433.804C120.805 432.345 119.164 431.798 117.614 432.619C115.973 433.439 114.879 432.71 114.879 431.251C114.788 426.784 111.05 424.778 108.953 421.678C107.403 419.399 105.123 417.575 102.935 415.296C103.847 415.022 104.85 414.749 105.761 414.566C113.511 412.925 115.061 411.375 116.52 403.534C116.885 401.802 117.249 399.979 117.34 398.155C117.523 393.323 120.076 389.858 123.723 387.123C125.728 385.664 127.734 384.206 129.74 382.838C132.019 381.288 134.116 380.559 137.216 381.562C139.952 382.473 143.234 382.017 146.243 381.926C146.972 381.926 147.701 381.288 148.34 380.832C151.531 378.006 155.451 376.821 159.554 377.55C163.474 378.188 165.936 376.273 168.307 373.994C169.948 372.353 171.68 370.985 174.051 370.53C176.968 370.074 178.974 368.159 180.706 366.062C182.074 364.33 183.715 363.236 185.903 362.597C187.909 362.05 189.915 360.956 191.556 359.771C196.57 356.033 202.314 355.03 208.241 354.301C210.064 354.118 211.979 354.027 213.802 353.571C216.537 352.842 217.358 351.474 216.537 348.739C215.99 346.916 216.082 345.366 217.449 343.998C217.905 343.542 218.087 342.813 218.179 342.175C218.543 339.166 218.817 336.066 219.273 333.057C220.184 327.313 217.267 322.755 211.705 321.296C211.158 321.205 210.702 320.84 210.155 320.658C210.155 320.384 210.064 320.202 209.973 319.928C211.979 318.834 213.802 317.284 215.899 316.555C223.011 314.367 230.122 312.452 237.234 310.537C240.425 309.626 243.707 308.896 246.898 307.984C248.813 307.437 248.904 305.887 248.539 304.429C247.901 301.967 249.086 301.146 251.092 300.873C254.83 300.417 258.477 299.961 262.215 299.596C262.763 299.596 263.674 299.87 263.948 300.326C265.315 302.423 267.139 304.429 266.592 307.255C266.592 307.529 266.501 307.893 266.592 307.984C268.689 309.534 266.956 310.264 266.045 311.358C262.671 315.278 259.024 319.108 256.107 323.302C253.098 327.678 253.827 329.866 258.204 333.057C259.754 334.151 261.304 335.154 262.854 336.248C263.674 336.795 263.857 337.342 263.492 338.436C262.489 341.263 261.577 344.089 261.03 347.007C260.848 348.01 261.668 349.286 262.124 350.38C262.489 351.383 263.127 352.295 263.31 353.389C263.674 355.486 264.039 357.492 265.771 358.859C266.227 359.224 266.683 359.953 266.592 360.318C265.862 362.324 265.042 364.147 264.221 366.062C263.583 367.521 262.854 368.888 262.215 370.347C261.942 370.985 261.942 371.897 261.486 372.353C258.021 375.909 259.571 379.829 260.483 383.659C260.757 384.935 260.848 385.847 260.027 386.941C259.298 387.944 258.842 389.311 258.751 390.497C258.477 393.779 256.563 395.876 253.554 396.97C248.813 398.611 245.257 401.711 244.254 406.999C243.981 408.458 243.251 409.917 242.431 411.102C241.063 413.199 240.607 415.387 241.063 417.758C241.428 419.581 240.698 420.766 239.331 421.86C236.14 424.413 232.949 427.148 229.849 429.884C227.569 431.889 225.108 432.345 222.464 430.886C220.914 429.975 220.002 430.248 218.908 431.616C216.902 434.351 216.264 434.351 213.62 432.436C212.343 431.525 211.067 430.522 209.791 429.61C207.511 427.878 200.764 428.516 199.032 430.886C198.212 431.981 197.482 432.163 196.206 431.707C195.02 431.342 193.562 431.342 192.376 431.707C191.738 431.889 190.918 433.166 191.009 433.895C191.009 436.539 190.644 436.995 188 436.722C187.453 436.722 186.906 436.722 185.994 436.63L185.903 436.904Z" fill="currentColor" stroke="#DAAA63" strokeWidth="2" strokeMiterlimit="10"/>
<path id="Jeonui" d="M36.4695 176.421C36.743 174.142 37.1077 171.953 37.1989 169.674C37.1989 168.853 36.8342 167.759 36.2871 167.212C35.3754 166.301 34.1901 165.571 33.0049 164.933C31.6373 164.204 31.0902 163.018 31.8196 161.833C33.0049 160.101 34.5548 158.642 36.1048 157.183C36.3783 156.91 37.1077 157.183 37.6547 157.183C38.6576 157.001 39.8429 156.91 40.5723 156.363C42.1222 155.36 41.8487 153.536 40.2988 152.625C38.1106 151.348 37.1077 148.157 38.3841 145.969C39.5694 144.054 39.5694 142.048 38.84 140.043C38.5665 139.313 38.4753 138.493 38.5665 137.672C38.9312 135.302 38.0194 133.387 36.2871 131.928C34.7372 130.652 34.4637 129.102 34.646 127.278C34.9195 124.725 35.0107 122.173 35.4666 119.711C35.6489 118.617 36.5607 117.523 37.29 116.52C37.4724 116.246 37.9283 116.064 38.2929 115.882C42.1222 113.237 42.6693 109.591 39.8429 105.852C39.4782 105.397 39.1135 104.85 38.7488 104.394C37.8371 103.026 36.1048 101.567 36.2871 100.291C36.5607 98.1027 38.0194 96.0057 38.9312 93.9087C40.3899 90.6264 42.3046 87.6177 45.131 85.2472C46.5898 83.9707 46.4986 81.9649 46.0427 80.1414C45.2222 76.4945 44.7663 72.574 42.3958 69.4741C42.0311 69.0183 42.1222 68.0153 42.3958 67.4683C43.581 64.2772 41.9399 60.1744 39.1135 58.3509C37.7459 57.4392 36.743 55.7069 35.9224 54.1569C35.0107 52.2423 34.4637 50.2365 33.7343 48.2307C33.3696 47.1366 32.6402 46.0425 32.549 44.8572C32.4578 43.9455 32.6402 42.6691 33.2784 42.2132C34.099 41.6662 35.5577 41.3015 36.3783 41.6662C39.0223 42.9426 41.0282 42.3044 42.8516 40.3897C43.034 40.2074 43.1252 40.1162 43.3075 40.025C46.6809 37.1075 47.1368 37.1986 48.9603 41.2103C49.5073 42.4867 50.2367 42.7602 51.422 42.122C53.4278 41.1191 55.4336 40.2986 57.4394 39.478C59.6276 38.5663 60.7217 39.2045 60.8128 41.6662C60.8128 43.3985 61.1775 44.4925 63.3657 44.0367C64.0951 43.8543 65.0068 44.4925 65.7362 44.8572C66.9215 45.4955 67.9244 46.4072 69.0185 47.1366C71.0243 48.413 73.1213 49.0512 75.4918 48.5954C76.3124 48.413 77.2241 48.5042 78.0447 48.5954C82.3298 49.2336 85.7033 46.6807 85.9768 42.3955C85.9768 40.8456 86.615 39.9339 88.1649 39.478C90.7178 38.6574 91.9942 36.9251 92.2678 34.1899C92.4501 32.0929 93.1795 30.0871 93.8177 28.0813C94.0001 27.6254 94.9118 27.3519 95.4588 27.0784C95.4588 27.0784 95.7324 27.1695 95.8235 27.1695C98.6499 27.1695 101.385 27.1695 103.391 29.9959C103.938 30.8165 106.126 30.543 107.585 30.7253C110.411 30.9988 110.594 31.2724 111.232 34.0987C111.505 35.3752 112.599 36.4693 113.42 37.4722C114.514 38.7486 115.791 40.025 117.158 41.0279C117.979 41.575 119.255 42.122 120.076 41.9397C121.99 41.3926 123.176 41.9397 123.905 43.5808C125.637 47.5924 128.373 50.0541 132.658 51.1482C133.296 51.3306 133.934 52.3335 134.025 53.0629C134.39 55.1599 135.484 56.6186 137.125 57.9862C137.946 58.7156 138.584 60.1744 138.493 61.1773C137.855 65.9184 135.028 69.7476 131.564 72.4829C129.284 74.3063 125.728 74.5799 122.72 75.4004C122.082 75.5828 121.17 75.0357 120.532 74.5799C119.073 73.4858 117.705 72.3917 116.429 71.1153C114.696 69.383 112.508 68.9271 110.229 68.7447C110.047 68.7447 109.864 68.7447 109.591 68.7447C107.403 69.1094 103.391 73.7593 103.482 76.0386C103.573 78.9562 103.938 81.7826 105.306 84.6089C106.126 86.2501 106.4 88.3471 106.4 90.1705C106.4 92.4499 104.485 93.544 102.388 92.6322C100.747 91.9028 99.2881 90.6264 97.8293 89.5323C97.3735 89.1676 97.1 88.5294 96.6441 88.1647C96.0971 87.8 95.3677 87.5265 94.7295 87.253C94.4559 87.8912 94.0912 88.5294 93.9089 89.1676C93.5442 90.6264 93.0883 92.0852 92.906 93.544C92.8148 94.5469 92.906 95.7321 93.453 96.4615C94.5471 98.0115 94.6383 99.4703 93.453 100.838C91.7207 102.844 90.0796 104.941 88.2561 106.855C85.6121 109.499 85.065 113.055 87.0709 116.337C89.0767 119.711 90.2619 123.175 88.3473 127.096C87.5267 128.828 87.6179 130.652 88.2561 132.566C88.8032 134.207 88.9855 135.94 89.0767 137.672C89.259 140.498 89.0767 143.325 89.259 146.06C89.4414 148.795 90.3531 151.166 92.6325 152.807C96.0059 155.086 96.3706 158.277 95.6412 161.833C95.55 162.38 95.1853 163.109 94.8206 163.292C91.8119 164.933 88.8943 166.665 85.7944 167.851C82.8769 168.945 81.2357 170.586 81.9651 173.594C83.0592 178.244 81.5093 182.074 78.9564 185.812C78.5917 186.268 78.1358 186.815 78.1358 187.362C77.9535 190.826 75.9477 193.379 74.3977 196.206C74.033 196.844 73.3948 197.208 72.9389 197.755C72.4831 198.211 71.7537 198.576 71.6625 199.123C71.2978 200.4 70.3861 201.311 69.292 200.947C68.2891 200.582 67.195 199.67 66.8303 198.667C65.5539 195.294 63.7304 194.017 60.1746 194.564C59.3541 194.656 58.5335 194.747 57.8041 194.929C56.5277 195.203 55.7983 194.747 55.1601 193.744C53.6101 191.464 52.0602 189.003 50.0544 187.088C48.5044 185.629 46.2251 185.082 44.3104 184.079C42.1222 182.894 39.9341 181.8 38.0194 180.341C37.1989 179.703 37.1077 178.153 36.6518 176.968L36.4695 176.421Z" fill="currentColor" stroke="#DAAA63" strokeWidth="2" strokeMiterlimit="10"/>
<path id="Jeondong" d="M203.408 80.4174C203.043 81.5115 202.496 83.6085 201.767 85.6143C201.311 86.8908 201.22 87.8937 201.767 89.1701C202.952 91.9965 201.585 94.4582 200.217 96.8287C199.397 98.2875 198.485 99.7463 197.482 101.205C196.844 102.117 196.114 102.937 195.294 103.667C194.747 104.123 193.926 104.305 193.47 104.852C191.647 106.767 189.459 107.496 186.815 107.314C185.173 107.314 183.806 107.861 183.806 109.958C183.806 110.596 183.35 111.234 183.076 111.781C182.347 113.422 181.618 115.063 180.888 116.705C179.612 119.531 178.153 122.357 176.968 125.184C176.421 126.369 176.056 127.645 175.965 128.922C175.874 131.292 174.688 132.386 172.409 131.931C170.586 131.566 169.947 132.386 169.674 133.936C169.218 136.125 170.403 137.675 171.406 139.498C173.23 143.145 174.233 148.889 170.677 151.624C169.492 152.536 168.671 153.995 167.85 155.271C166.209 158.006 163.656 159.465 160.648 160.377C159.918 160.559 159.007 160.468 158.277 160.286C156.636 159.739 155.633 160.286 155.086 161.744C154.357 163.659 153.08 164.297 151.166 163.568C150.072 163.203 148.795 163.021 147.701 162.565C145.148 161.653 142.595 161.562 140.134 162.93C139.86 163.112 139.495 163.294 139.222 163.294C136.031 162.838 132.84 163.659 129.74 163.841C128.463 163.841 127.187 163.841 126.002 163.933C124.178 164.115 122.264 164.206 120.44 164.48C118.981 164.753 117.431 165.209 116.064 165.847C113.693 166.85 113.055 166.759 111.87 164.571C110.138 161.471 109.955 161.562 106.399 161.744C103.391 161.927 100.382 161.653 97.4644 161.471C97.1909 161.471 96.6438 160.468 96.735 160.012C97.4644 156.73 96.3703 154.268 93.7263 152.262C91.1734 150.348 90.1705 147.704 90.0793 144.604C90.0793 142.507 90.1705 140.319 90.0793 138.222C89.897 136.033 89.2588 133.845 89.0764 131.566C88.9852 130.107 88.8029 128.375 89.3499 127.19C91.2646 123.178 90.0793 119.531 88.2559 116.158C86.25 112.328 86.6147 109.684 89.8058 106.767C91.7205 105.034 93.2704 102.937 94.7292 100.749C95.7321 99.2904 95.7321 97.5581 94.5468 96.0993C93.7263 95.0964 93.7263 94.1847 94.2733 92.9994C94.7292 92.0877 94.638 90.9024 94.9115 89.8995C95.0027 89.3524 95.2762 88.8966 95.4586 88.3495C95.9144 88.6231 96.5527 88.8054 96.9174 89.2613C98.1938 91.2671 100.108 92.4524 102.297 93.2729C105.032 94.2758 107.311 93.0906 107.493 90.173C107.585 88.1672 107.038 86.1614 106.491 84.1555C106.126 82.7879 105.397 81.4203 104.941 80.0527C103.573 75.6764 105.488 72.5765 108.77 70.0236C110.138 68.9296 113.42 69.3854 115.334 70.9354C116.702 72.1206 118.07 73.3059 119.346 74.5823C120.987 76.2234 122.902 76.5881 125.09 75.8587C127.278 75.1294 129.375 74.4911 131.563 73.7618C132.019 73.5794 132.566 73.3059 132.931 72.9412C135.757 69.5678 138.675 66.2855 139.678 61.7268C139.678 61.4533 139.86 61.1798 139.86 60.9063C140.042 60.0857 140.134 58.5358 140.407 58.5358C141.775 58.3534 143.325 58.4446 144.692 58.8093C145.422 58.9916 146.151 59.721 146.698 60.3592C150.163 64.0062 154.357 63.5503 158.551 62.5474C160.739 62.0004 162.745 60.9063 164.842 59.9945C166.756 59.174 167.85 59.3563 168.762 61.271C169.674 63.0944 170.859 63.915 173.047 64.0973C176.147 64.3709 179.156 65.465 182.165 66.2855C182.894 66.4679 183.624 67.0149 184.171 67.5619C186.632 70.206 189.823 70.9354 193.197 71.3001C194.656 71.4824 196.114 71.6648 197.573 71.8471C202.679 72.4853 203.682 75.4941 203.773 80.5998L203.408 80.4174Z" fill="currentColor" stroke="#DAAA63" strokeWidth="2" strokeMiterlimit="10"/>
<path id="Yeonseo" d="M77.5888 214.623C77.4064 214.076 77.3152 213.437 76.9506 212.982C74.58 209.699 74.4889 206.235 75.4918 202.497C76.0388 200.582 76.7682 198.667 75.2183 196.753C74.9447 196.388 75.4006 195.203 75.8565 194.656C77.4064 192.832 78.1358 190.735 78.774 188.456C79.4122 185.903 81.0534 183.715 82.1475 181.253C83.2415 178.883 83.6062 176.421 82.8768 173.868C82.1475 171.224 83.2415 169.583 85.5209 168.58C88.8031 167.121 91.9942 165.571 95.0941 163.839C96.8264 162.836 98.3764 162.107 100.565 162.38C102.753 162.654 105.123 162.563 107.311 162.38C108.953 162.198 110.138 162.654 110.685 164.204C111.87 167.486 113.876 168.033 117.158 166.118C118.252 165.48 119.529 165.389 120.805 165.115C122.537 164.842 124.27 164.751 126.002 164.568C127.096 164.477 128.281 164.477 129.375 164.386C130.834 164.295 132.293 164.021 133.843 163.839C134.025 163.839 134.208 163.657 134.39 163.657C137.581 164.568 140.499 163.201 143.599 162.836C145.513 162.563 147.701 163.383 149.616 163.93C150.163 164.113 150.801 165.298 150.801 165.936C150.619 169.127 152.351 170.951 154.995 172.045C156.728 172.774 157.639 173.959 158.277 175.783C159.28 178.518 160.922 181.071 162.016 183.715C162.563 184.991 163.018 186.541 163.018 187.909C163.018 192.103 165.207 194.017 169.492 193.288C169.948 193.288 170.404 193.015 170.859 192.923C174.051 192.012 174.051 192.012 176.239 194.656C179.247 198.485 182.347 202.223 185.447 206.052C186.359 207.146 186.177 208.97 184.809 209.699C182.803 210.793 182.986 212.07 183.624 213.893C184.9 217.176 184.9 217.084 188.456 217.449C190.006 217.631 191.465 218.452 192.832 219.181C194.2 219.911 195.476 220.002 196.844 219.181C198.12 218.361 198.576 218.999 199.123 220.093C199.761 221.278 200.491 222.555 201.403 223.558C204.047 226.202 204.32 228.025 201.858 231.034C199.761 233.587 198.394 236.322 198.759 239.604C198.941 240.881 199.397 242.066 199.67 243.251C200.309 245.622 199.397 247.263 197.209 248.175C196.479 248.448 195.841 249.36 195.568 250.089C194.473 253.189 193.562 256.289 192.559 259.389C192.194 260.574 191.465 260.301 190.735 259.663C187.818 257.018 184.718 254.557 181.983 251.73C178.792 248.357 175.236 248.175 171.224 249.451C170.495 249.633 169.583 249.998 168.854 249.816C166.939 249.36 166.118 250.272 165.754 251.913C165.207 254.01 164.386 255.833 162.38 257.018C161.195 257.657 160.466 257.474 160.01 256.289C159.645 255.469 159.372 253.919 158.825 253.827C157.183 253.554 155.36 253.645 153.81 254.01C151.348 254.648 149.069 255.56 146.698 256.563C144.784 257.383 143.051 257.018 141.41 256.016C138.493 254.192 135.575 253.007 132.202 254.648C131.837 254.83 131.381 254.739 131.017 254.648C127.461 253.736 123.905 252.551 120.258 251.913C117.34 251.457 114.332 251.639 111.323 251.73C110.685 251.73 109.955 252.277 109.317 252.642C107.494 253.554 106.947 253.28 106.856 251.275C106.673 248.175 107.038 244.984 106.4 241.975C105.306 237.325 103.482 232.949 102.023 228.39C101.385 226.293 100.565 224.287 100.2 222.099C99.6528 219.09 99.2881 218.634 96.2794 218.452C95.2765 218.452 94.2736 217.814 93.3618 217.176C92.2677 216.446 91.2648 215.534 90.3531 214.623C87.3444 211.979 84.3356 213.893 81.4181 214.805C80.0505 215.261 78.8652 215.352 77.6799 214.44L77.5888 214.623Z" fill="currentColor" stroke="#DAAA63" strokeWidth="2" strokeMiterlimit="10"/>
<path id="Janggun" d="M99.1058 224.652C99.7441 226.11 100.291 227.752 101.112 229.119C103.756 233.587 104.576 238.601 105.853 243.433C106.309 245.166 105.853 247.172 105.853 249.086C105.853 249.724 105.579 250.454 105.853 251.092C106.764 253.736 106.764 256.289 105.762 258.842C105.306 260.027 104.85 261.303 104.212 262.398C102.935 264.677 101.385 266.956 100.291 269.327C99.9264 270.147 100.109 271.424 100.473 272.336C101.385 274.25 101.476 275.982 100.109 277.806C99.197 279.082 99.9264 283.094 101.203 284.006C101.659 284.37 102.388 284.37 103.026 284.37C103.573 284.37 104.212 283.915 104.576 284.097C107.767 285.465 111.323 285.191 114.514 286.103C116.338 286.65 117.523 289.476 118.708 291.391C119.073 292.029 118.708 293.214 118.343 294.035C117.341 296.041 116.064 297.955 115.061 299.961C114.605 300.873 114.332 301.967 113.967 302.97C113.694 303.699 113.511 304.52 113.055 305.158C111.505 307.62 111.505 307.62 113.511 309.899C114.241 310.72 114.788 311.723 115.244 312.725C116.155 314.64 116.702 316.737 117.979 318.378C119.529 320.384 120.349 322.39 120.076 324.76C119.802 327.222 120.988 328.954 123.085 329.866C126.002 331.234 127.826 333.148 127.461 336.704C127.461 337.525 128.099 338.436 128.373 339.348C128.737 340.898 128.92 342.448 129.284 343.907C129.467 344.819 129.649 346.004 130.196 346.642C132.384 348.921 132.384 352.021 133.296 354.756C133.478 355.304 132.84 356.215 132.475 356.853C131.928 357.856 131.199 358.859 130.561 359.771C130.196 360.227 129.74 360.592 129.284 360.865C128.099 361.686 126.64 362.324 125.546 363.327C124.27 364.421 124.27 365.971 125.09 367.338C126.184 368.98 127.37 370.621 128.555 372.171C130.014 374.176 131.564 376.091 132.931 378.097C133.752 379.282 133.478 379.92 132.111 380.65C126.914 383.294 121.99 386.485 118.526 391.226C117.432 392.776 117.067 394.873 116.611 396.788C115.882 400.161 115.517 403.626 114.697 406.999C113.785 410.555 111.323 412.652 107.676 413.29C106.947 413.381 106.217 413.564 105.488 413.746C98.9235 415.843 93.1795 413.564 87.8003 410.19C85.7033 408.914 85.7033 408.367 87.0709 406.452C87.3444 406.178 87.618 405.723 87.618 405.449C87.618 402.349 87.618 399.158 87.4356 396.058C87.4356 395.329 86.7062 394.508 86.1592 393.87C85.1563 392.685 85.1563 391.591 86.5239 390.952C88.9856 389.767 89.7149 388.035 90.3532 385.3C90.9914 382.564 91.2649 380.012 90.809 377.368C90.5355 376.091 90.0796 374.815 89.4414 373.629C88.712 372.353 87.7091 371.715 86.068 372.535C85.6121 372.809 84.518 372.809 84.2445 372.535C82.7857 370.438 80.2329 369.162 79.9594 366.153C79.9594 365.424 79.5947 364.694 79.3211 364.056C78.2271 361.412 77.0418 358.859 76.1301 356.124C75.8566 355.486 76.3124 354.392 76.6771 353.662C78.8653 350.107 80.2329 346.277 79.9594 341.992C79.9594 341.263 78.7741 340.533 78.0447 339.986C77.0418 339.166 75.7654 338.619 74.8536 337.707C72.1184 335.063 68.2891 334.425 64.9157 336.157C62.454 337.433 61.3599 337.251 60.2659 334.789C59.3541 332.875 58.8982 330.687 58.4424 328.59C58.1689 327.587 58.7159 327.04 59.81 326.584C60.7217 326.128 61.5423 324.943 61.9982 323.94C62.5452 322.846 61.4511 322.299 60.7217 321.66C59.3541 320.475 58.4424 318.834 57.2571 317.466C56.7101 316.828 56.163 316.099 55.4337 315.643C53.4278 314.275 52.8808 312.725 54.2484 310.628C56.9836 306.343 60.0835 302.423 64.3687 299.414C66.2833 298.138 66.3745 296.952 65.0981 294.947C63.3658 292.211 61.6335 289.476 59.9923 286.65C59.4453 285.738 59.3541 284.644 58.8983 283.641C58.6247 282.912 58.4424 282.091 57.8953 281.544C56.3454 279.721 56.163 278.353 56.8924 276.074C57.3483 274.615 57.6218 272.974 57.6218 271.424C57.6218 269.6 58.26 268.324 59.6276 267.047C61.907 264.768 64.004 263.218 66.8304 266.318C67.1951 266.683 69.1097 266.318 69.7479 265.589C70.842 264.312 72.0273 264.039 73.5772 264.039C74.5801 264.039 75.583 263.4 76.5859 263.036C76.1301 262.124 75.7654 261.212 75.2183 260.392C73.9419 258.659 72.5743 257.018 71.389 255.286C71.2067 255.013 71.6626 254.192 71.9361 253.645C72.4831 252.824 73.2125 252.095 73.6684 251.274C75.036 248.266 76.4948 245.257 77.4977 242.157C78.5006 238.875 79.9594 237.142 83.8798 237.416C86.7062 237.598 89.1679 234.225 89.5326 231.216C89.7149 229.94 89.8061 228.663 89.9885 227.478C90.1708 226.84 90.5355 226.11 90.9914 225.655C92.5413 224.196 94.0001 222.646 94.2736 220.367C94.456 218.725 95.9148 219.181 97.0088 219.09C98.0118 219.09 98.8323 219.272 98.9235 220.549C98.9235 221.825 99.197 223.102 99.2882 224.287C99.1058 224.287 99.0147 224.378 98.8323 224.469L99.1058 224.652Z" fill="currentColor" stroke="#DAAA63" strokeWidth="2" strokeMiterlimit="10"/>
<path id="Yeondong" d="M196.115 263.218C193.471 264.039 192.559 263.218 193.288 260.483C193.926 257.839 195.02 255.286 195.75 252.642C196.297 250.91 196.388 249.269 198.667 248.448C200.582 247.81 201.311 244.892 200.4 242.978C198.667 239.148 199.397 235.684 201.767 232.402C202.588 231.216 203.317 229.94 203.864 228.572C204.503 226.84 204.047 225.29 202.77 223.922C202.223 223.375 201.676 222.737 201.129 222.19C198.485 218.999 198.485 216.082 201.129 213.073C201.403 212.708 202.041 212.526 202.497 212.526C207.329 212.252 212.252 212.07 217.084 211.796C218.908 211.705 219.82 212.161 220.64 213.985C222.008 216.811 224.196 219.273 226.111 221.825C226.293 222.099 226.658 222.373 226.931 222.373C230.305 222.92 232.128 225.837 234.499 227.843C235.228 228.481 235.593 229.666 235.775 230.76C236.413 233.313 236.778 235.957 237.507 238.419C237.963 239.969 239.513 240.243 241.063 239.604C244.619 238.146 248.175 237.963 251.639 239.969C252.004 240.151 252.46 240.243 252.642 240.516C253.645 242.795 254.466 245.075 255.469 247.263C256.016 248.631 256.654 249.998 257.383 251.275C257.748 251.913 258.477 252.46 258.933 253.098C261.121 255.924 261.121 257.11 258.751 259.754C255.833 263.127 254.739 266.774 256.107 271.242C256.745 273.247 256.472 275.618 256.38 277.715C256.198 281.544 255.924 285.191 259.754 287.653C261.668 288.838 263.31 290.388 265.133 291.756C266.774 292.941 267.048 293.853 266.045 295.676C264.677 298.047 262.945 299.232 259.936 299.323C256.016 299.505 252.095 300.6 248.175 301.238C247.81 301.238 247.445 301.511 246.989 301.511C241.337 302.058 235.684 302.605 230.122 303.152C225.837 303.608 224.378 302.788 222.555 298.867C221.643 296.953 221.005 294.764 219.729 293.123C218.361 291.391 216.446 289.841 214.44 288.747C211.614 287.015 208.514 285.738 205.505 284.279C204.047 283.55 202.679 282.729 201.129 282.274C199.214 281.635 198.303 280.541 197.938 278.627C197.209 274.797 196.297 270.968 195.659 267.048C195.476 265.771 195.841 264.495 195.932 263.036L196.115 263.218Z" fill="currentColor" stroke="#DAAA63" strokeWidth="2" strokeMiterlimit="10"/>
<path id="Bukang" d="M253.736 240.883C255.65 241.066 256.927 241.157 258.294 241.248C258.659 241.248 259.024 241.521 259.297 241.43C262.397 240.518 265.679 240.61 268.779 240.063C269.691 239.88 270.694 238.604 271.15 237.692C271.879 235.96 273.065 235.048 274.797 234.775C275.435 234.683 276.073 234.41 276.711 234.319C277.623 234.228 278.535 234.136 279.447 234.045C279.173 234.775 278.626 235.595 278.808 236.233C278.991 236.963 279.72 238.057 280.358 238.239C281.908 238.695 281.908 239.424 281.088 240.336C280.176 241.339 278.991 242.068 278.079 243.071C277.532 243.71 276.985 244.53 276.894 245.351C276.894 245.898 277.714 246.718 278.353 246.901C281.088 247.812 283.367 251.368 283.002 254.195C282.547 257.386 282.638 257.294 285.464 259.118C287.652 260.577 288.199 263.13 288.382 265.591C288.564 268.6 289.476 269.876 292.393 270.332C295.129 270.697 297.955 271.153 300.69 271.426C302.605 271.609 304.611 271.426 306.161 269.968C307.346 268.874 308.349 269.329 308.713 270.697C309.26 272.52 310.628 273.706 311.54 275.164C312.725 276.988 312.999 279.358 313.181 281.638C313.363 283.37 314.184 284.647 314.822 286.196C315.734 288.202 315.734 290.664 315.916 292.943C315.916 293.217 314.731 293.946 314.275 293.764C310.902 292.761 308.166 293.764 305.614 295.861C304.246 296.864 304.155 297.502 305.614 298.596C306.616 299.417 307.619 300.328 308.713 300.784C311.722 301.97 312.269 304.614 312.452 307.258C312.543 309.081 313.272 310.266 314.549 311.269C317.284 313.549 317.466 314.643 316.372 317.925C315.734 319.657 315.551 321.207 316.098 323.213C316.737 325.219 317.101 327.225 318.287 329.048C319.107 330.325 318.469 331.783 317.01 332.239C314.457 333.06 311.905 333.516 309.352 334.245C307.802 334.701 306.252 335.157 304.884 335.977C303.334 336.889 302.422 336.616 301.237 335.43C298.411 332.604 295.584 329.778 292.485 327.225C288.929 324.398 286.285 325.036 283.55 328.775C281.544 331.51 279.538 334.245 277.35 336.889C274.341 340.445 271.97 340.536 268.141 338.074C266.409 336.98 264.312 336.342 262.488 335.248C260.847 334.336 259.297 333.242 257.839 332.057C255.468 330.233 254.921 328.592 256.106 325.948C257.109 323.851 258.386 321.937 259.936 320.113C262.853 316.74 265.953 313.549 269.053 310.266C269.691 309.628 269.965 308.899 268.779 308.443C268.324 308.261 267.776 307.714 267.776 307.44C268.141 304.796 266.5 302.972 265.315 301.058C264.585 299.873 264.494 299.052 265.588 298.049C265.953 297.776 266.227 297.32 266.5 296.955C268.597 294.22 268.232 292.943 265.406 290.938C263.127 289.388 260.847 287.655 258.841 285.741C256.836 283.826 257.109 281 257.383 278.538C257.747 275.529 257.747 272.703 256.836 269.876C255.924 266.959 256.836 264.315 258.386 261.944C258.659 261.488 259.024 261.124 259.388 260.668C262.306 257.203 262.306 255.471 259.115 252.098C257.565 250.456 256.38 248.815 256.106 246.445C255.924 244.804 254.83 243.345 253.827 241.066L253.736 240.883Z" fill="currentColor" stroke="#DAAA63" strokeWidth="2" strokeMiterlimit="10"/>
<path id="Sojeong" d="M22.1552 63.4567C22.1552 63.4567 22.1552 62.8185 21.9729 62.3626C20.97 59.9009 19.9671 57.3481 18.9641 54.8864C18.5083 53.7923 18.2348 52.607 17.7789 51.5129C17.5965 50.9659 17.4142 50.4189 17.0495 49.8718C16.3201 48.5954 15.4084 47.319 14.7702 45.9513C14.0408 44.4014 13.2202 43.3073 11.3056 43.125C10.0291 43.0338 8.75269 42.1221 7.56744 41.3927C6.29101 40.4809 6.6557 39.3868 8.02331 39.1133C10.0291 38.6575 11.3967 37.5634 12.582 35.9222C13.4026 34.8282 15.0437 34.4635 16.2289 33.6429C17.5054 32.7312 18.6906 31.6371 19.9671 30.6342C20.5141 30.1783 21.2435 29.8136 21.8817 29.7224C25.8933 29.0842 28.6286 26.1667 28.7197 22.155C28.7197 19.0551 30.452 16.7758 32.2755 14.5876C32.7314 14.1317 33.9166 13.9494 34.646 14.1317C37.9283 14.5876 38.0194 14.6788 39.387 11.5789C40.39 9.48188 41.8487 7.84075 43.9457 7.02019C45.131 6.56432 46.5898 6.74667 47.9574 6.83784C48.6868 6.83784 49.325 7.38489 50.0544 7.38489C52.6072 7.38489 53.9748 8.84367 54.7042 11.0318C55.2513 12.673 56.163 13.22 57.9865 13.0377C60.5393 12.8553 63.0922 13.0377 65.5539 11.7612C66.2833 11.3965 67.9244 12.0347 68.8361 12.5818C70.4773 13.6759 72.0272 13.8582 74.033 13.8582C76.9506 13.767 79.9593 14.5876 82.8769 15.1346C83.6975 15.317 84.4268 15.864 85.2474 16.1376C87.6179 16.8669 88.8944 18.2346 89.3502 20.6962C89.6237 21.8815 90.809 23.1579 91.9031 23.9785C92.9972 24.8902 93.6354 25.3461 92.9972 26.9872C92.0854 29.3577 91.5384 31.9106 91.0825 34.4635C90.7178 36.5605 89.6237 37.7457 87.8003 38.2928C85.7944 38.8398 84.9739 39.9339 84.9739 42.0309C84.9739 45.4955 81.7828 47.9572 78.227 47.319C77.5888 47.2278 76.8594 47.0454 76.2212 47.2278C72.3919 48.1395 69.5655 46.316 66.5568 44.4014C65.4627 43.672 64.0951 43.2161 62.7275 42.9426C61.5422 42.6691 61.1776 42.1221 61.0864 41.028C60.904 38.1104 59.4453 37.2898 56.6189 38.4751C54.7954 39.2045 52.8807 39.9339 51.0573 40.7544C49.9632 41.2103 49.4161 41.028 48.9603 39.8427C47.5927 36.5605 45.678 36.1958 42.9428 38.4751C42.2134 39.1133 41.3929 39.7515 40.6635 40.3898C39.387 41.3015 38.1106 41.575 36.743 40.6633C35.1019 39.5692 33.6431 40.1162 32.2755 41.028C30.9079 41.9397 30.7255 43.4897 31.2726 45.0396C31.8196 46.5896 32.549 47.9572 33.0961 49.4159C33.6431 50.9659 34.0078 52.607 34.646 54.0658C35.1019 55.1599 35.7401 56.1628 36.3783 57.1657C37.3812 58.7157 37.2901 62.1803 36.1048 63.5479C35.8313 63.9126 35.1931 64.0037 34.7372 64.1861C33.9166 64.4596 33.1872 64.8243 32.3667 65.0066C31.7285 65.189 30.9991 65.4625 30.5432 65.189C29.0844 64.3684 27.8992 64.7331 26.6227 65.5537C26.1669 65.8272 25.711 66.1007 25.164 66.1919C23.067 66.7389 21.517 65.5537 21.6994 63.092L22.1552 63.4567Z" fill="currentColor" stroke="#DAAA63" strokeWidth="2" strokeMiterlimit="10"/>
<path id="Jochiwon" d="M163.748 188.091C163.93 184.353 161.469 181.526 160.283 178.244C159.736 176.877 159.28 175.509 158.46 174.233C157.822 173.23 156.819 172.409 155.816 171.771C153.719 170.494 151.622 169.4 151.531 166.483C151.531 165.206 151.622 164.659 153.172 164.386C154.175 164.204 154.995 162.927 155.907 162.198C156.545 161.742 157.275 160.83 157.822 161.012C162.107 161.924 165.207 159.736 167.76 156.91C169.492 154.995 170.859 152.716 172.501 150.801C174.142 148.886 174.415 146.698 173.686 144.419C173.139 142.687 173.686 142.139 175.418 142.139C179.886 142.139 179.794 141.957 183.441 139.587C184.08 139.222 185.356 138.948 185.721 139.313C186.359 139.86 186.724 140.954 186.906 141.775C186.997 142.231 186.724 142.778 186.45 143.325C184.809 146.972 185.812 150.71 186.541 154.357C186.815 155.816 188.091 156.363 189.459 156.363C191.191 156.363 191.556 157.183 191.374 158.824C190.826 162.562 191.009 162.38 194.2 164.386C195.203 165.024 195.659 166.574 196.115 167.85C196.662 169.218 197.026 170.586 197.209 172.044C197.391 173.412 197.209 174.871 197.209 176.33C197.209 177.424 197.3 178.518 197.482 179.612C197.482 179.977 197.756 180.25 197.847 180.524C198.12 183.532 199.032 185.994 202.132 187.362C202.77 187.635 203.135 189.641 202.861 190.462C201.767 193.379 201.311 196.297 201.129 199.397C201.129 200.946 199.67 202.588 198.485 203.864C195.112 207.511 195.02 207.511 198.759 210.702C200.309 211.979 200.4 213.073 199.306 214.531C198.759 215.261 198.303 216.081 197.756 216.902C196.388 218.908 194.656 219.272 192.376 218.361C190.553 217.631 188.547 217.358 186.724 216.72C185.721 216.355 184.171 215.808 184.08 215.17C183.897 213.711 182.621 211.887 184.9 210.611C187.088 209.334 186.815 207.146 185.174 205.232C183.259 203.226 181.8 200.855 180.068 198.667C178.427 196.57 176.968 194.382 174.962 192.65C174.142 191.92 172.318 192.285 171.042 192.285C169.674 192.285 168.215 192.832 166.939 192.65C163.474 192.103 163.383 191.738 163.566 188.273L163.748 188.091Z" fill="currentColor" stroke="#DAAA63" strokeWidth="2" strokeMiterlimit="10"/>
<g id="Sinaedong">
<path d="M126.367 364.33C127.734 366.153 129.011 368.159 130.47 369.892C132.384 372.08 134.208 374.359 136.396 376.274C138.219 377.915 140.772 377.55 142.596 375.818C143.963 374.541 145.331 373.265 146.607 371.897C149.342 368.889 150.801 365.515 150.072 361.321C149.981 360.683 150.437 359.589 151.075 359.224C154.722 356.945 158.277 354.483 162.927 354.21C164.751 354.118 167.851 348.922 167.395 347.098C166.574 343.907 165.48 340.898 162.38 338.984C161.013 338.163 161.195 337.343 162.563 336.522C164.386 335.337 165.389 333.787 165.207 331.325C165.115 329.866 165.845 328.408 166.392 326.949C166.939 325.399 167.577 323.94 168.307 322.481C168.398 322.208 168.671 321.843 168.945 321.843C171.315 321.387 172.045 319.29 173.048 317.558C174.324 315.37 173.048 313.364 170.586 312.908C169.948 312.817 170.221 314.093 169.218 313.729C169.218 314.731 168.489 314.002 168.489 314.823C168.489 315.279 168.307 316.19 168.033 316.19C167.577 316.281 166.848 316.19 166.483 315.826C165.936 315.37 165.48 314.731 165.024 314.184C164.204 313.273 163.566 312.179 162.563 311.54C161.377 310.811 161.195 310.264 161.924 308.988C162.563 307.711 162.836 306.07 163.11 304.611C163.11 304.338 162.198 303.608 161.651 303.608C159.554 303.426 158.277 302.058 158.004 300.417C157.822 299.05 158.825 297.591 159.463 296.132C159.827 295.311 160.83 293.944 160.648 293.762C159.827 292.941 158.733 292.485 157.73 292.029C156.728 291.665 155.633 291.482 154.631 291.209C150.984 290.115 147.428 288.838 143.507 289.659C141.046 290.206 140.863 289.932 140.316 287.562C140.043 286.559 139.405 285.465 138.675 284.735C137.216 283.185 135.666 281.727 134.116 280.268C131.928 278.08 129.649 277.897 126.823 279.083C125.273 279.721 123.449 279.812 121.717 279.994C119.893 280.177 118.07 279.721 116.338 280.085C115.517 280.268 114.423 281.453 114.241 282.365C113.602 285.191 111.232 285.465 109.226 284.644C107.311 283.732 105.488 282.638 103.117 283.459C102.844 283.55 102.206 283.277 101.932 282.912C100.929 281.909 100.656 278.991 101.476 277.715C102.479 276.074 102.662 274.342 101.841 272.518C101.112 270.968 101.112 269.601 102.114 268.233C103.482 266.227 104.759 264.312 105.944 262.215C106.582 261.121 106.947 259.754 107.129 258.477C107.585 255.742 108.405 253.372 111.414 252.551C111.961 252.369 112.691 252.095 113.147 252.278C114.97 253.28 116.702 252.551 118.526 252.46C120.349 252.369 122.264 253.189 124.087 253.645C126.549 254.283 128.92 254.922 131.381 255.56C131.928 255.651 132.749 255.56 133.296 255.286C135.393 254.101 137.581 254.375 139.405 255.651C143.325 258.295 147.063 258.113 151.166 255.833C153.081 254.739 155.542 254.739 157.822 254.466C158.277 254.466 159.189 255.195 159.372 255.742C160.101 258.295 161.377 258.842 163.566 257.474C165.207 256.472 166.301 255.377 166.665 253.372C166.939 251.457 167.851 250.181 170.312 250.545C171.862 250.728 173.595 250.089 175.236 249.725C177.15 249.269 178.792 249.725 180.25 251.001C184.08 254.375 188 257.748 191.829 261.213C192.285 261.668 192.559 262.307 192.923 262.854C193.106 263.127 193.106 263.674 193.288 263.765C196.023 264.951 195.476 267.777 196.206 269.965C196.935 272.245 197.209 274.615 197.664 276.986C197.847 277.897 197.664 278.991 198.12 279.721C198.85 280.906 199.67 282.274 200.764 282.912C203.317 284.462 206.144 285.647 208.788 286.924C210.611 287.835 212.526 288.747 214.44 289.568C217.176 290.662 219.273 292.303 220.549 295.038C221.37 296.861 222.099 298.685 223.102 300.508C224.834 303.791 226.567 304.611 230.305 304.155C234.407 303.699 238.51 303.061 242.613 302.605C243.616 302.514 244.619 302.514 245.622 302.423C247.445 302.332 248.357 303.061 248.539 304.885C248.722 306.799 247.81 307.346 246.078 307.802C236.687 310.264 227.205 312.634 217.905 315.461C215.079 316.281 212.435 318.287 210.155 320.202C205.505 324.214 201.129 328.59 197.847 333.787C196.206 336.34 194.565 338.801 193.288 341.537C189.732 348.739 183.624 352.751 176.603 355.76C170.951 358.13 165.298 360.501 160.648 364.786C158.551 366.7 157.639 369.162 156.91 371.715C156.363 373.447 157.457 374.268 159.372 374.177C160.83 374.177 162.38 374.268 163.839 374.541C164.204 374.541 164.568 375.362 164.842 375.818C164.295 376.183 163.839 376.638 163.292 376.821C162.836 377.003 162.198 376.821 161.742 376.73C156.91 376.091 152.442 376.912 148.613 380.194C148.157 380.65 147.428 381.106 146.881 381.106C143.69 381.106 140.407 380.924 137.308 380.468C136.396 380.377 135.484 379.1 134.846 378.188C133.752 376.73 132.84 375.18 131.837 373.721C130.196 371.442 128.373 369.253 126.823 366.974C126.367 366.336 126.458 365.242 126.367 364.421L127.096 364.239L126.367 364.33Z" fill="currentColor"/>
<path d="M218.726 331.234C218.452 333.057 217.996 335.519 217.632 337.981C217.54 338.801 217.267 339.622 217.358 340.351C217.632 342.175 216.993 343.542 215.899 344.91C215.352 345.639 215.17 347.007 215.443 348.01C216.446 351.474 215.717 352.842 212.07 353.389C207.602 354.118 203.044 354.483 198.667 355.486C196.297 356.033 194.2 357.401 192.012 358.495C189.55 359.68 187.088 360.865 184.809 362.142C183.259 363.054 181.527 363.965 180.341 365.242C178.245 367.521 176.056 369.162 172.956 370.074C171.042 370.621 169.401 372.171 167.76 373.539C166.483 374.633 165.571 375.18 163.748 374.177C162.471 373.447 160.739 373.356 159.189 373.447C157.092 373.539 156.454 372.991 157.183 370.986C159.463 364.512 165.024 361.686 170.586 358.86C173.595 357.31 176.877 356.216 179.886 354.757C186.541 351.566 191.1 346.46 194.382 339.895C197.664 333.24 202.314 327.587 208.058 322.846C208.879 322.208 210.52 322.299 211.796 322.481C215.352 323.028 218.726 327.131 218.634 331.143L218.726 331.234Z" fill="currentColor"/>
<path d="M127.096 318.287C128.464 321.387 129.831 324.214 129.922 327.496C134.39 327.131 138.857 326.493 142.96 324.852C143.143 324.852 143.325 324.761 143.416 324.669C145.057 323.849 146.243 319.837 145.057 319.017C142.96 317.467 141.502 315.37 140.681 313.09C140.499 313.09 140.407 313.273 140.225 313.364C138.219 318.196 131.837 319.017 127.005 318.196L127.096 318.287Z" fill="currentColor"/>
<path d="M151.713 291.3C148.522 290.57 145.331 289.841 142.049 290.753C140.407 291.209 139.496 290.297 139.131 288.565C138.949 287.471 138.493 286.285 137.855 285.556C136.305 283.732 134.481 282.091 132.749 280.541C130.743 278.718 129.284 278.809 126.731 279.903C125.181 280.633 123.449 280.815 121.808 280.997C120.714 281.088 119.62 280.815 118.435 280.633V280.815C117.796 280.815 117.249 280.724 116.611 280.815C114.696 280.815 114.514 282.547 114.149 283.824C114.058 284.188 114.97 285.009 115.426 285.556C115.791 286.012 116.246 286.468 116.611 287.015C116.976 287.562 117.249 288.2 117.705 288.656C120.076 290.662 120.349 292.759 118.799 295.403C117.067 298.229 114.97 300.873 114.514 304.338C114.514 304.885 114.058 305.432 113.694 305.888C112.599 307.073 112.964 308.076 113.967 309.17C114.788 310.082 115.699 311.176 115.882 312.361C116.246 314.64 117.249 316.464 118.708 318.196C120.167 319.837 121.261 321.57 120.896 323.94C120.623 325.581 120.896 326.949 121.808 328.043C124.452 327.952 127.187 327.861 129.922 327.587C129.831 324.305 128.464 321.478 127.096 318.378C131.928 319.199 138.31 318.378 140.316 313.546C140.499 313.364 140.59 313.273 140.772 313.273C139.769 310.446 139.952 307.438 141.502 305.158C143.143 303.152 148.34 307.985 148.704 304.794C149.434 300.508 149.889 295.585 152.078 291.665C151.986 291.665 151.804 291.665 151.713 291.573V291.3Z" fill="currentColor"/>
<path d="M166.209 347.283C165.662 344.092 164.386 341.448 161.56 339.533C160.192 338.621 159.736 337.983 160.101 337.345C154.904 335.612 151.986 330.507 147.61 327.133C146.334 325.857 144.601 325.857 143.142 324.945C138.948 326.495 134.572 327.225 130.105 327.589C127.461 327.772 124.725 327.863 121.99 328.045C122.537 328.774 123.358 329.413 124.452 329.869C125.181 330.142 125.911 330.598 126.458 331.236C127.096 331.966 127.825 332.786 128.099 333.607C128.919 336.342 129.558 339.077 130.196 341.812C130.378 342.451 130.196 343.18 130.196 343.818C130.378 344.73 130.469 345.915 131.108 346.462C133.113 348.194 132.931 350.656 133.843 352.753C134.937 355.306 134.207 357.312 132.11 358.862C131.928 358.953 131.837 359.226 131.837 359.409C131.472 361.232 130.287 362.326 128.828 363.238C127.461 364.059 127.461 365.062 128.463 366.156C129.375 367.159 130.105 368.253 130.925 369.256C132.657 371.353 134.39 373.45 136.304 375.364C138.128 377.096 140.225 376.823 142.048 375.182C143.416 373.905 144.784 372.629 145.969 371.17C148.522 368.344 149.98 365.153 148.978 361.141C148.795 360.503 149.433 359.409 149.98 359.044C152.807 357.403 155.542 355.306 158.551 354.485C161.56 353.665 164.112 352.844 165.48 349.927C165.845 349.197 166.209 348.194 166.027 347.465L166.209 347.283Z" fill="currentColor"/>
<path d="M172.045 315.187C171.771 314.549 170.859 314.002 170.13 313.82C169.857 313.82 169.218 314.64 168.854 315.279C168.489 316.008 168.307 317.376 167.942 317.376C167.212 317.467 166.118 317.011 165.48 316.555C164.751 315.917 164.295 315.005 163.748 314.184C163.383 313.637 163.018 312.999 162.563 312.726C159.736 310.993 159.736 310.993 161.286 308.167C162.289 306.435 161.924 304.794 160.466 304.429C156.089 303.152 155.725 298.776 158.277 295.767C158.733 295.22 158.916 294.582 159.28 293.944C158.551 293.579 157.822 293.214 157.001 292.941C156.089 292.667 155.178 292.576 154.266 292.303C153.536 292.12 152.807 291.665 152.078 291.482C149.889 295.403 149.525 300.417 148.704 304.611C148.34 307.802 143.051 302.97 141.502 304.976C139.952 307.255 139.769 310.264 140.772 313.09C141.593 315.279 143.051 317.376 145.148 319.017C146.334 319.837 145.148 323.849 143.507 324.669C143.325 324.669 143.143 324.761 143.051 324.852C144.51 325.763 146.334 325.855 147.519 327.04C151.895 330.413 154.904 335.519 160.01 337.251C160.283 336.796 160.83 336.431 161.651 335.884C163.474 334.699 164.204 333.331 164.113 331.052C164.113 329.319 164.751 327.313 165.663 325.855C166.483 324.487 167.03 323.393 166.939 321.843C166.939 321.478 167.76 320.749 168.215 320.658C170.221 320.384 172.683 317.102 171.954 315.187H172.045Z" fill="currentColor"/>
<path d="M142.96 324.852C138.857 326.493 134.39 327.131 129.922 327.496C129.831 324.214 128.464 321.387 127.096 318.287L127.005 318.196C131.837 319.017 138.219 318.196 140.225 313.364C140.407 313.273 140.499 313.09 140.681 313.09C141.502 315.37 142.96 317.467 145.057 319.017C146.243 319.837 145.057 323.849 143.416 324.669C143.325 324.761 143.143 324.852 142.96 324.852ZM142.96 324.852C142.596 324.578 142.231 324.305 141.866 323.849M130.105 327.589C134.572 327.225 138.948 326.495 143.142 324.945C144.601 325.857 146.334 325.857 147.61 327.133C151.986 330.507 154.904 335.612 160.101 337.345C159.736 337.983 160.192 338.621 161.56 339.533C164.386 341.448 165.662 344.092 166.209 347.283L166.027 347.465C166.209 348.194 165.845 349.197 165.48 349.927C164.112 352.844 161.56 353.665 158.551 354.485C155.542 355.306 152.807 357.403 149.98 359.044C149.433 359.409 148.795 360.503 148.978 361.141C149.98 365.153 148.522 368.344 145.969 371.17C144.784 372.629 143.416 373.905 142.048 375.182C140.225 376.823 138.128 377.096 136.304 375.364C134.39 373.45 132.657 371.353 130.925 369.256C130.105 368.253 129.375 367.159 128.463 366.156C127.461 365.062 127.461 364.059 128.828 363.238C130.287 362.326 131.472 361.232 131.837 359.409C131.837 359.226 131.928 358.953 132.11 358.862C134.207 357.312 134.937 355.306 133.843 352.753C132.931 350.656 133.113 348.194 131.108 346.462C130.469 345.915 130.378 344.73 130.196 343.818C130.196 343.18 130.378 342.451 130.196 341.812C129.558 339.077 128.919 336.342 128.099 333.607C127.825 332.786 127.096 331.966 126.458 331.236C125.911 330.598 125.181 330.142 124.452 329.869C123.358 329.413 122.537 328.774 121.99 328.045C124.725 327.863 127.461 327.772 130.105 327.589ZM130.105 327.589C130.105 328.136 130.105 328.683 130.105 329.23M140.772 313.09C139.769 310.264 139.952 307.255 141.502 304.976C143.051 302.97 148.34 307.802 148.704 304.611C149.525 300.417 149.889 295.403 152.078 291.482C152.807 291.665 153.536 292.12 154.266 292.303C155.178 292.576 156.089 292.667 157.001 292.941C157.822 293.214 158.551 293.579 159.28 293.944C158.916 294.582 158.733 295.22 158.277 295.767C155.725 298.776 156.089 303.152 160.466 304.429C161.924 304.794 162.289 306.435 161.286 308.167C159.736 310.993 159.736 310.993 162.563 312.726C163.018 312.999 163.383 313.637 163.748 314.184C164.295 315.005 164.751 315.917 165.48 316.555C166.118 317.011 167.212 317.467 167.942 317.376C168.307 317.376 168.489 316.008 168.854 315.279C169.218 314.64 169.857 313.82 170.13 313.82C170.859 314.002 171.771 314.549 172.045 315.187H171.954C172.683 317.102 170.221 320.384 168.215 320.658C167.76 320.749 166.939 321.478 166.939 321.843C167.03 323.393 166.483 324.487 165.663 325.855C164.751 327.313 164.113 329.319 164.113 331.052C164.204 333.331 163.474 334.699 161.651 335.884C160.83 336.431 160.283 336.796 160.01 337.251C154.904 335.519 151.895 330.413 147.519 327.04C146.334 325.855 144.51 325.763 143.051 324.852C143.143 324.761 143.325 324.669 143.507 324.669C145.148 323.849 146.334 319.837 145.148 319.017C143.051 317.376 141.593 315.279 140.772 313.09ZM140.772 313.09C141.046 312.999 141.41 312.999 141.957 312.999M126.367 364.33C127.734 366.153 129.011 368.159 130.47 369.892C132.384 372.08 134.208 374.359 136.396 376.274C138.219 377.915 140.772 377.55 142.596 375.818C143.963 374.541 145.331 373.265 146.607 371.897C149.342 368.889 150.801 365.515 150.072 361.321C149.981 360.683 150.437 359.589 151.075 359.224C154.722 356.945 158.277 354.483 162.927 354.21C164.751 354.118 167.851 348.922 167.395 347.098C166.574 343.907 165.48 340.898 162.38 338.984C161.013 338.163 161.195 337.343 162.563 336.522C164.386 335.337 165.389 333.787 165.207 331.325C165.115 329.866 165.845 328.408 166.392 326.949C166.939 325.399 167.577 323.94 168.307 322.481C168.398 322.208 168.671 321.843 168.945 321.843C171.315 321.387 172.045 319.29 173.048 317.558C174.324 315.37 173.048 313.364 170.586 312.908C169.948 312.817 170.221 314.093 169.218 313.729C169.218 314.731 168.489 314.002 168.489 314.823C168.489 315.279 168.307 316.19 168.033 316.19C167.577 316.281 166.848 316.19 166.483 315.826C165.936 315.37 165.48 314.731 165.024 314.184C164.204 313.273 163.566 312.179 162.563 311.54C161.377 310.811 161.195 310.264 161.924 308.988C162.563 307.711 162.836 306.07 163.11 304.611C163.11 304.338 162.198 303.608 161.651 303.608C159.554 303.426 158.277 302.058 158.004 300.417C157.822 299.05 158.825 297.591 159.463 296.132C159.827 295.311 160.83 293.944 160.648 293.762C159.827 292.941 158.733 292.485 157.73 292.029C156.728 291.665 155.633 291.482 154.631 291.209C150.984 290.115 147.428 288.838 143.507 289.659C141.046 290.206 140.863 289.932 140.316 287.562C140.043 286.559 139.405 285.465 138.675 284.735C137.216 283.185 135.666 281.727 134.116 280.268C131.928 278.08 129.649 277.897 126.823 279.083C125.273 279.721 123.449 279.812 121.717 279.994C119.893 280.177 118.07 279.721 116.338 280.085C115.517 280.268 114.423 281.453 114.241 282.365C113.602 285.191 111.232 285.465 109.226 284.644C107.311 283.732 105.488 282.638 103.117 283.459C102.844 283.55 102.206 283.277 101.932 282.912C100.929 281.909 100.656 278.991 101.476 277.715C102.479 276.074 102.662 274.342 101.841 272.518C101.112 270.968 101.112 269.601 102.114 268.233C103.482 266.227 104.759 264.312 105.944 262.215C106.582 261.121 106.947 259.754 107.129 258.477C107.585 255.742 108.405 253.372 111.414 252.551C111.961 252.369 112.691 252.095 113.147 252.278C114.97 253.28 116.702 252.551 118.526 252.46C120.349 252.369 122.264 253.189 124.087 253.645C126.549 254.283 128.92 254.922 131.381 255.56C131.928 255.651 132.749 255.56 133.296 255.286C135.393 254.101 137.581 254.375 139.405 255.651C143.325 258.295 147.063 258.113 151.166 255.833C153.081 254.739 155.542 254.739 157.822 254.466C158.277 254.466 159.189 255.195 159.372 255.742C160.101 258.295 161.377 258.842 163.566 257.474C165.207 256.472 166.301 255.377 166.665 253.372C166.939 251.457 167.851 250.181 170.312 250.545C171.862 250.728 173.595 250.089 175.236 249.725C177.15 249.269 178.792 249.725 180.25 251.001C184.08 254.375 188 257.748 191.829 261.213C192.285 261.668 192.559 262.307 192.923 262.854C193.106 263.127 193.106 263.674 193.288 263.765C196.023 264.951 195.476 267.777 196.206 269.965C196.935 272.245 197.209 274.615 197.664 276.986C197.847 277.897 197.664 278.991 198.12 279.721C198.85 280.906 199.67 282.274 200.764 282.912C203.317 284.462 206.144 285.647 208.788 286.924C210.611 287.835 212.526 288.747 214.44 289.568C217.176 290.662 219.273 292.303 220.549 295.038C221.37 296.861 222.099 298.685 223.102 300.508C224.834 303.791 226.567 304.611 230.305 304.155C234.407 303.699 238.51 303.061 242.613 302.605C243.616 302.514 244.619 302.514 245.622 302.423C247.445 302.332 248.357 303.061 248.539 304.885C248.722 306.799 247.81 307.346 246.078 307.802C236.687 310.264 227.205 312.634 217.905 315.461C215.079 316.281 212.435 318.287 210.155 320.202C205.505 324.214 201.129 328.59 197.847 333.787C196.206 336.34 194.565 338.801 193.288 341.537C189.732 348.739 183.624 352.751 176.603 355.76C170.951 358.13 165.298 360.501 160.648 364.786C158.551 366.7 157.639 369.162 156.91 371.715C156.363 373.447 157.457 374.268 159.372 374.177C160.83 374.177 162.38 374.268 163.839 374.541C164.204 374.541 164.568 375.362 164.842 375.818C164.295 376.183 163.839 376.638 163.292 376.821C162.836 377.003 162.198 376.821 161.742 376.73C156.91 376.091 152.442 376.912 148.613 380.194C148.157 380.65 147.428 381.106 146.881 381.106C143.69 381.106 140.407 380.924 137.308 380.468C136.396 380.377 135.484 379.1 134.846 378.188C133.752 376.73 132.84 375.18 131.837 373.721C130.196 371.442 128.373 369.253 126.823 366.974C126.367 366.336 126.458 365.242 126.367 364.421L127.096 364.239L126.367 364.33ZM218.726 331.234C218.452 333.057 217.996 335.519 217.632 337.981C217.54 338.801 217.267 339.622 217.358 340.351C217.632 342.175 216.993 343.542 215.899 344.91C215.352 345.639 215.17 347.007 215.443 348.01C216.446 351.474 215.717 352.842 212.07 353.389C207.602 354.118 203.044 354.483 198.667 355.486C196.297 356.033 194.2 357.401 192.012 358.495C189.55 359.68 187.088 360.865 184.809 362.142C183.259 363.054 181.527 363.965 180.341 365.242C178.245 367.521 176.056 369.162 172.956 370.074C171.042 370.621 169.401 372.171 167.76 373.539C166.483 374.633 165.571 375.18 163.748 374.177C162.471 373.447 160.739 373.356 159.189 373.447C157.092 373.539 156.454 372.991 157.183 370.986C159.463 364.512 165.024 361.686 170.586 358.86C173.595 357.31 176.877 356.216 179.886 354.757C186.541 351.566 191.1 346.46 194.382 339.895C197.664 333.24 202.314 327.587 208.058 322.846C208.879 322.208 210.52 322.299 211.796 322.481C215.352 323.028 218.726 327.131 218.634 331.143L218.726 331.234ZM151.713 291.3C148.522 290.57 145.331 289.841 142.049 290.753C140.407 291.209 139.496 290.297 139.131 288.565C138.949 287.471 138.493 286.285 137.855 285.556C136.305 283.732 134.481 282.091 132.749 280.541C130.743 278.718 129.284 278.809 126.731 279.903C125.181 280.633 123.449 280.815 121.808 280.997C120.714 281.088 119.62 280.815 118.435 280.633V280.815C117.796 280.815 117.249 280.724 116.611 280.815C114.696 280.815 114.514 282.547 114.149 283.824C114.058 284.188 114.97 285.009 115.426 285.556C115.791 286.012 116.246 286.468 116.611 287.015C116.976 287.562 117.249 288.2 117.705 288.656C120.076 290.662 120.349 292.759 118.799 295.403C117.067 298.229 114.97 300.873 114.514 304.338C114.514 304.885 114.058 305.432 113.694 305.888C112.599 307.073 112.964 308.076 113.967 309.17C114.788 310.082 115.699 311.176 115.882 312.361C116.246 314.64 117.249 316.464 118.708 318.196C120.167 319.837 121.261 321.57 120.896 323.94C120.623 325.581 120.896 326.949 121.808 328.043C124.452 327.952 127.187 327.861 129.922 327.587C129.831 324.305 128.464 321.478 127.096 318.378C131.928 319.199 138.31 318.378 140.316 313.546C140.499 313.364 140.59 313.273 140.772 313.273C139.769 310.446 139.952 307.438 141.502 305.158C143.143 303.152 148.34 307.985 148.704 304.794C149.434 300.508 149.889 295.585 152.078 291.665C151.986 291.665 151.804 291.665 151.713 291.573V291.3Z" stroke="#DAAA63" strokeWidth="2" strokeMiterlimit="10"/>
</g>
</g>
</g>
</g>
</svg>
