<svg width="326" height="228" viewBox="0 0 326 228" fill="none" xmlns="http://www.w3.org/2000/svg">
<g id="&#236;&#160;&#132;&#235;&#157;&#188;&#235;&#182;&#129;&#235;&#143;&#132; 1" clipPath="url(#clip0_844_4001)">
<g id="&#235;&#160;&#136;&#236;&#157;&#180;&#236;&#150;&#180; 1">
<g id="Group">
<path id="Muju" d="M250.875 72.3579L253.057 66.6838L246.947 59.1184V54.0262L242 43.1145L243.6 29.2929L260.332 39.1862L263.096 31.6208L260.332 24.6372L263.969 21L270.08 27.9835L274.59 23.4733L279.536 31.6208L288.993 33.6576L290.885 37.5858L307.761 31.9117L314.163 34.967L315.036 40.6411L323.62 53.0078L316.636 58.0999L316.927 64.5015L311.981 65.8109L308.634 73.3764L296.995 81.3783L286.229 82.6877L283.319 92.4355L278.227 95.3453L270.662 89.6712L262.66 88.7983L261.496 83.1242L257.567 73.8128L250.875 72.3579Z" fill="currentColor" stroke="#DAAA63" strokeWidth="2"/>
<path id="Jeonan" d="M187.376 98.7877L195.378 84.0932L199.597 71.1446V64.1611L202.944 63.2882L203.817 48.5937L201.052 45.8294L205.999 41.6102L208.763 30.1165L214.874 37.1L216.765 37.6819L220.402 33.7537L226.804 43.647L242.662 42.4831L247.318 53.9768V58.487L253.429 66.0525L251.246 72.3085L257.939 73.7634L262.449 83.6567L258.521 83.9477L256.338 91.5132L253.283 93.9865L243.244 91.5132L238.298 94.8595L238.88 106.644L230.878 115.083L228.986 125.994L230.441 132.396L229.568 139.088L221.275 139.67L219.82 136.033L214.874 133.56L207.308 128.759L198.433 128.177C198.433 128.177 192.032 127.886 192.032 125.994C192.032 123.957 192.323 113.628 192.323 113.628L187.376 105.771V98.7877Z" fill="currentColor" stroke="#DAAA63" strokeWidth="2"/>
<path id="Wanju" d="M166.862 111.445L157.697 119.302L157.406 129.777L157.115 135.16L147.658 145.344L147.367 129.05L142.857 125.412L147.076 112.173L148.967 107.372L158.715 105.335L162.934 99.3696L169.045 99.6606L174.282 94.2774L178.502 88.3124L175.737 87.1484L172.1 78.419L164.389 79.292L158.278 67.2163H144.893L138.201 68.6712L137.619 62.7061L144.311 62.4152L149.84 54.2677L151.295 41.9011L156.824 37.6819L155.369 30.9893L156.969 25.8972L155.369 22.2599L159.879 17.4588H171.518L175.155 14.4035L182.721 16.4403L184.03 9.45683L190.723 12.0756L198.434 5.81958L203.962 10.3298L207.6 26.6246L209.782 30.2619L205.854 41.4646L201.343 46.2658L203.526 48.4481L202.653 63.1426L200.18 63.4336L199.307 70.9991L195.087 83.9477L187.085 98.6421L180.684 105.626L181.848 109.263L183.303 113.773L184.176 122.211L181.702 122.502L177.047 117.992L173.118 116.537L170.354 111.736L166.862 111.445Z" fill="currentColor" stroke="#DAAA63" strokeWidth="2"/>
<path id="Jeonju" d="M175.737 87.2939L172.1 78.5645L164.389 79.4375L158.278 67.3618H144.893L138.201 68.8167L132.963 67.6528L129.035 69.3987L133.545 75.8002L132.672 75.2183L129.035 83.3657L132.963 92.968L140.238 96.8963L144.457 98.6421L143.002 101.988L141.838 105.626L147.949 111.3L149.113 107.372L158.86 105.335L163.08 99.3696L169.19 99.6606L176.756 91.8041L178.647 88.4579L175.737 87.2939Z" fill="currentColor" stroke="#DAAA63" strokeWidth="2"/>
<path id="Jangsu" d="M206.29 157.857L210.218 152.764L211.091 142.58L221.13 139.816L229.423 139.234L230.296 132.541L228.841 126.14L230.732 115.228L238.734 106.79L238.152 95.005L243.099 91.6587L253.138 94.132L256.193 91.6587L258.375 84.0932L262.304 83.8022L262.886 88.3124L270.888 89.7673L279.18 96.0234L272.633 101.843L270.16 118.283L266.086 121.921L261.722 131.814L265.068 141.562L260.994 145.053L259.248 151.31L254.884 155.238L251.537 160.912L252.119 172.115L247.609 179.098L239.898 178.516V171.824L229.859 162.512L224.04 161.93L216.329 158.293L214.728 161.348L206.29 157.857Z" fill="currentColor" stroke="#DAAA63" strokeWidth="2"/>
<path id="Namwon" d="M169.918 214.307L174.719 207.614L178.211 199.321L183.885 198.739L184.758 193.502L191.014 192.192L196.833 183.608L195.524 178.08L196.833 174.006H206.436L204.981 168.768L202.944 165.568L202.362 160.039L207.018 158.293L215.165 160.766L216.765 157.711L224.04 161.639L230.296 161.93L239.607 171.096L240.335 177.934L248.046 178.516L252.556 171.533V159.748L255.32 154.656L261.722 162.076L267.978 173.424L265.068 178.516L266.668 184.627L272.343 187.391L269.433 195.975L261.285 203.395L260.267 209.942L263.759 216.052L253.283 225.073L246.154 217.944L234.515 210.378L223.021 209.942L212.401 224.491L204.835 220.708L196.106 226.382L189.268 222.163L183.448 221.727L178.211 215.616L174.428 222.163L169.19 220.272L169.918 214.307Z" fill="currentColor" stroke="#DAAA63" strokeWidth="2"/>
<path id="Imsil" d="M165.989 183.172L159.733 182.153L156.678 172.842L148.53 170.369V165.713L152.459 162.076L148.53 158.439L148.385 150.437L151.149 147.672L148.676 144.326L157.405 135.16V119.738L167.008 111.591L170.645 112.173L173.409 116.974L176.756 118.72L181.993 122.939L184.03 122.212L183.739 114.21L181.266 106.062L187.085 99.9517L187.376 106.062L192.323 113.919L192.177 127.013L196.542 128.468L207.308 129.05L219.821 136.324L221.275 139.961L211.819 142.289L210.509 152.474L206.29 158.584L202.362 160.33L202.944 165.859L204.981 169.059L206.435 174.297H196.833L195.524 178.371L181.12 179.244L175.883 177.789L173.409 175.024L168.754 178.371L167.444 183.172H165.989Z" fill="currentColor" stroke="#DAAA63" strokeWidth="2"/>
<path id="Sunchang" d="M97.7546 178.662L114.777 178.08L115.359 170.951L114.922 166.586L123.943 158.729L128.162 162.367L132.963 160.912L141.111 170.369H148.385L156.533 172.842L160.315 182.153L167.59 183.026L168.899 178.225L173.555 174.879L176.028 177.643L181.266 179.098L195.669 178.225L196.979 183.754L190.577 192.629L184.903 193.647L184.03 198.885L178.356 199.467L175.301 207.032L170.063 214.452L155.514 226.237L141.984 222.018L140.092 216.78L144.02 215.762L142.711 204.995L137.764 203.977L136.164 199.903L141.111 197.721V192.92L138.637 190.737L137.182 183.754L130.053 184.627L127.144 191.756L124.234 194.084L123.797 198.885L116.959 200.194L110.703 193.647L109.248 187.973L103.429 184.336L97.6091 181.426L97.7546 178.662Z" fill="currentColor" stroke="#DAAA63" strokeWidth="2"/>
<path id="Jeongeup" d="M104.447 105.335L103.138 107.663L103.72 109.118L99.3551 112.755L89.3163 115.519L94.1174 120.175L92.2261 124.249L79.132 124.831L70.839 130.796L68.3657 141.416L70.4026 154.511L73.7488 155.093L77.9681 153.638V160.185L78.4045 165.713L81.1688 167.023L79.2775 172.697L80.8779 181.717L89.1708 181.572L91.6441 176.334L97.7547 179.098L114.777 178.516L115.359 171.387L114.777 167.605L123.943 159.166L128.162 162.803L132.963 161.349L141.111 170.805H148.385V166.15L152.313 162.512L148.385 158.875L148.24 150.873L151.004 148.109L147.949 143.89L147.512 129.341L143.293 125.122L140.238 128.904L133.109 128.031L127.871 122.794L126.562 118.138L121.615 114.064L115.504 115.374L111.576 108.972L104.447 105.335Z" fill="currentColor" stroke="#DAAA63" strokeWidth="2"/>
<path id="Gimje" d="M80.8778 92.8224L64.1465 83.0746L70.4025 76.0911L75.3492 74.7817L82.4782 76.6731L86.2609 69.5441L96.0088 64.4519H118.705L123.652 66.4888L128.889 69.2531L132.527 75.2182L128.889 83.3656L132.818 92.9679L144.748 98.3511L141.984 104.898L146.93 111.009L143.002 123.812L139.947 128.467L132.818 127.595L127.58 122.357L126.271 117.701L120.597 113.918L115.213 114.937L111.285 108.535L104.156 105.189L102.847 107.517L103.429 108.972L99.0641 112.609L89.0253 115.373L81.3143 104.462L78.9865 96.6052L81.4598 94.8593L80.8778 92.8224Z" fill="currentColor" stroke="#DAAA63" strokeWidth="2"/>
<path id="Buan" d="M59.1997 155.238L51.3433 145.926L34.6119 147.381L26.319 151.6L13.6614 140.98L14.0978 133.851L31.5566 122.939L37.3762 122.066L48.579 109.408L49.8884 93.4045L67.3472 95.1504L78.8408 99.5151L81.7506 103.589L89.4616 115.374L94.8447 120.466L92.3714 124.103L79.2773 124.685L71.1299 129.923L69.093 140.252L70.5479 154.219L59.1997 155.238Z" fill="currentColor" stroke="#DAAA63" strokeWidth="2"/>
<path id="Gochang" d="M7.9873 189.864L20.2085 167.75L32.7206 162.221L43.1959 162.076L50.0339 156.111L58.7633 158.293L59.1997 155.383L70.4025 154.365L72.8758 155.238L77.8225 153.492L78.8409 165.131L80.8777 166.877L79.4228 171.969L80.7323 180.844L74.3307 187.828L76.6585 192.047L75.0581 199.03C75.0581 199.03 71.2754 200.922 71.1299 201.795C70.9844 202.668 70.9844 208.924 70.9844 208.924L58.0358 213.288L51.9253 219.835L44.6508 217.507L39.8496 218.089L39.9951 224.782C39.9951 224.782 27.7739 222.454 27.483 221.872C27.3375 221.29 26.61 211.979 26.61 211.979L22.6818 211.542L18.7536 202.959L20.3539 191.756L7.9873 189.864Z" fill="currentColor" stroke="#DAAA63" strokeWidth="2"/>
<g id="Gunsan">
<path d="M80.7322 69.253L89.0251 63.8699L99.3549 64.4519L107.648 49.6119L111.285 38.4092L103.283 31.4257L101.392 24.4421L91.2074 32.2986L80.1502 32.7351L74.0396 39.4276L68.22 40.1551L62.9824 39.5731L61.091 43.5013L38.8311 46.2656L36.0668 49.3209L33.0115 47.575L33.8844 52.3762L42.7593 55.7225L47.415 58.4868V69.9805L59.0542 70.8534L62.9824 69.3985L68.802 69.9805L70.6934 72.0173L74.0396 70.8534L80.7322 69.253ZM2.16762 84.9659L1.29468 93.4044L6.24133 90.931L2.16762 84.9659Z" fill="currentColor"/>
<path d="M80.7322 69.253L89.0251 63.8699L99.3549 64.4519L107.648 49.6119L111.285 38.4092L103.283 31.4257L101.392 24.4421L91.2074 32.2986L80.1502 32.7351L74.0396 39.4276L68.22 40.1551L62.9824 39.5731L61.091 43.5013L38.8311 46.2656L36.0668 49.3209L33.0115 47.575L33.8844 52.3762L42.7593 55.7225L47.415 58.4868V69.9805L59.0542 70.8534L62.9824 69.3985L68.802 69.9805L70.6934 72.0173L74.0396 70.8534L80.7322 69.253Z" fill="currentColor"/>
<path d="M2.16762 84.9659L1.29468 93.4044L6.24133 90.931L2.16762 84.9659Z" fill="currentColor"/>
<path d="M80.7322 69.253L89.0251 63.8699L99.3549 64.4519L107.648 49.6119L111.285 38.4092L103.283 31.4257L101.392 24.4421L91.2074 32.2986L80.1502 32.7351L74.0396 39.4276L68.22 40.1551L62.9824 39.5731L61.091 43.5013L38.8311 46.2656L36.0668 49.3209L33.0115 47.575L33.8844 52.3762L42.7593 55.7225L47.415 58.4868V69.9805L59.0542 70.8534L62.9824 69.3985L68.802 69.9805L70.6934 72.0173L74.0396 70.8534L80.7322 69.253ZM2.16762 84.9659L1.29468 93.4044L6.24133 90.931L2.16762 84.9659Z" fill="currentColor"/>
<path d="M80.7322 69.253L89.0251 63.8699L99.3549 64.4519L107.648 49.6119L111.285 38.4092L103.283 31.4257L101.392 24.4421L91.2074 32.2986L80.1502 32.7351L74.0396 39.4276L68.22 40.1551L62.9824 39.5731L61.091 43.5013L38.8311 46.2656L36.0668 49.3209L33.0115 47.575L33.8844 52.3762L42.7593 55.7225L47.415 58.4868V69.9805L59.0542 70.8534L62.9824 69.3985L68.802 69.9805L70.6934 72.0173L74.0396 70.8534L80.7322 69.253ZM2.16762 84.9659L1.29468 93.4044L6.24133 90.931L2.16762 84.9659Z" stroke="#DAAA63" strokeWidth="2"/>
</g>
<path id=" Iksan" d="M118.851 69.4519L123.798 71.4888L129.472 74.3986L133.4 72.6527L138.347 72.9437L138.056 67.8515L144.457 66.9786L149.986 59.9951L151.586 47.0465L157.115 42.8273L155.66 36.1347L157.26 31.0426L155.66 27.4053L145.039 23.0406L139.51 7.47323L133.982 9.3646L125.252 8.05519L120.597 6.16382L115.359 8.05519L107.503 7.9097L103.72 14.4567L103.283 25.223L101.392 29.4422L103.283 36.4257L111.285 43.4092C111.285 43.4092 107.648 53.8845 107.648 54.612C107.648 55.3394 99.3552 69.4519 99.3552 69.4519H118.851Z" fill="currentColor" stroke="#DAAA63" strokeWidth="2"/>
</g>
</g>
</g>
<defs>
<clipPath id="clip0_844_4001">
<rect width="325.49" height="227.677" fill="white"/>
</clipPath>
</defs>
</svg>
