<svg width="326" height="369" viewBox="0 0 326 369" fill="none" xmlns="http://www.w3.org/2000/svg">
<g id="&#236;&#182;&#169;&#236;&#178;&#173;&#235;&#182;&#129;&#235;&#143;&#132; 1" clipPath="url(#clip0_844_4165)">
<g id="&#235;&#160;&#136;&#236;&#157;&#180;&#236;&#150;&#180; 1">
<g id="Group">
<path id="Jincheon" d="M10.0399 116.484L15.2387 118.109L15.5636 126.882L25.1488 131.268L31.3223 136.304L30.6724 141.666L34.734 145.077C34.734 145.077 33.4343 149.789 34.409 149.464C35.3838 149.139 43.0195 147.189 43.0195 147.189L52.6046 142.153L60.0778 145.89L68.2009 139.229L63.1646 130.456L67.8759 128.831L68.5258 115.997L70.9627 112.91L56.9911 99.4259L51.1425 93.4148L46.4311 95.3643L42.0447 90.328L41.7198 83.3422L42.3696 68.2334L35.3838 73.9195L26.6109 75.3817L26.1235 82.6924L28.8854 86.2665L22.8743 92.2776L11.0147 92.6025L3.5415 105.599L8.25286 109.336L10.0399 116.484Z" fill="currentColor" stroke="#DAAA63" strokeWidth="2.43691"/>
<path id="Eumseong" d="M98.581 111.448L95.3318 119.409L87.2088 116.647L80.223 123.957L78.111 119.246L69.0132 115.509L71.2876 113.073L51.4674 93.5772L46.7561 95.5268L42.3696 90.4905L42.6946 68.3958V61.2476L55.6914 58.6482L63.3271 60.2728L67.2261 62.2223L69.0132 53.9368L73.0747 52.9621L77.1362 54.5867L76.8113 49.5504L83.1473 46.6261L82.6599 29.4053L96.3066 35.7412L100.531 36.8785L104.917 39.4778L98.906 46.951L96.6315 60.5977L92.7324 65.3091L91.2703 73.5946L88.9958 76.3564L89.9706 81.2302L94.1946 78.4684L98.906 81.5552L106.379 87.7287L111.74 87.2413L117.589 95.0394L121.488 100.238L120.026 109.823L112.39 112.26L108.654 111.61L98.581 111.448Z" fill="currentColor" stroke="#DAAA63" strokeWidth="2.43691"/>
<path id="Chungju" d="M124.737 91.3027L131.561 93.7396L134.16 100.888L144.395 107.711L153.655 109.661L155.93 108.524L159.666 112.098L162.753 117.946L164.54 125.907L170.551 130.456L174.938 127.206L183.548 128.831L188.422 129.481L191.021 132.568L198.007 126.394L192.646 122.658L188.259 118.921L184.035 123.145L179.324 116.484L184.523 105.924L184.685 97.4762L180.299 92.2774L184.685 86.4289L191.671 88.3784L190.209 78.7932L187.122 73.5945L191.346 67.9083L187.934 59.9478L188.909 51.9872L180.299 45.3263L178.024 41.1023L170.876 41.2648L169.739 45.0014L162.266 34.9288L160.154 30.8673L153.005 26.1559L146.507 30.8673L137.247 28.9178L122.788 34.1165L107.354 18.8452L97.1189 35.4162L100.856 37.3657L104.105 39.8026L99.2309 47.6008L96.9565 61.2475L92.2451 65.7964L91.5953 74.2443L89.3208 77.0061L90.2956 81.88L94.5195 79.1181L100.856 83.3421L106.704 88.2159L112.065 87.7285L118.401 96.1765L122.3 93.5771L124.737 91.3027Z" fill="currentColor" stroke="#DAAA63" strokeWidth="2.43691"/>
<path id="Jecheon" d="M221.726 56.3737L231.799 48.4132L229.037 42.5646L233.261 38.9904L239.11 43.5393L241.384 39.8027L237.485 34.1166L232.449 25.6687L246.745 13.809L246.095 9.42259L242.034 8.61029L231.311 12.8343L226.113 6.82322L218.152 1.9494L215.39 3.41155L207.43 11.3721L198.657 5.686L192.646 15.5961L176.4 18.8453V13.6466L171.688 3.24909L161.941 1.29956L152.193 8.44783L153.33 19.3327L153.168 25.1813L160.316 30.5425L162.428 34.604L169.576 44.0267L171.039 40.94L178.674 41.4274L180.461 45.0015L188.584 52.3122L188.097 59.6229L191.509 67.5835L187.285 73.2696L190.046 79.1182L191.671 88.0536L184.685 86.104L180.299 91.9526L184.685 97.1514L184.523 105.599L179.324 116.159L184.035 122.82L188.259 118.596L198.007 126.069L202.718 122.333L214.578 128.019L220.427 127.369V117.296L227.575 109.986L224.813 96.3391L228.712 89.5157L231.311 87.0788L229.037 77.1687L225.3 67.0961L220.914 65.9589L221.726 56.3737Z" fill="currentColor" stroke="#DAAA63" strokeWidth="2.43691"/>
<path id="Danyang" d="M232.936 111.935L244.958 126.232L251.944 128.831L256.168 132.893L262.666 126.557L269.815 127.044L276.801 116.159L275.013 110.96L271.927 104.624L275.663 94.0645L293.534 76.6812L298.408 75.0566L302.632 67.9083L306.856 59.9477L318.553 59.7853L323.752 53.7742L314.491 46.301L302.957 47.9257L288.01 38.8279L280.7 40.29L267.215 40.9398L259.417 29.2427H248.857L237.323 33.954L241.222 39.6402L238.135 42.7269L232.286 39.4777L228.875 42.5645L231.636 48.413L221.564 56.3736L220.589 65.7963L224.976 66.9336L228.875 75.8689L230.987 86.9162L228.387 89.3531L224.488 96.1765L226.763 110.473L232.936 111.935Z" fill="currentColor" stroke="#DAAA63" strokeWidth="2.43691"/>
<path id="Goesan" d="M123.6 192.028L117.589 190.891L102.967 175.133L106.866 167.984L94.5194 157.099L86.8838 152.875L82.6598 139.229L85.7466 134.03L83.4721 128.181L80.2229 122.983L87.2087 116.647L94.6819 119.246L98.581 111.448L108.654 111.61L111.253 112.585L120.026 109.986L121.488 100.401L118.726 95.6893L125.062 91.1404L131.885 93.5773L134.485 100.726L144.72 107.549L153.98 109.498L156.255 108.361L159.991 111.935L163.078 117.784L164.865 125.745L170.876 130.293L175.262 127.044L184.848 129.481L182.086 139.879L177.699 147.839L189.072 159.374L182.573 161.323L173.8 154.987L170.064 158.237L162.428 153.363L157.717 162.786L151.706 167.334L146.344 168.309L152.193 173.508L157.554 178.869L154.143 192.028L145.37 182.606L142.12 178.382L136.597 184.718L138.221 188.942L123.6 192.028Z" fill="currentColor" stroke="#DAAA63" strokeWidth="2.43691"/>
<path id="Jeungpyeong" d="M90.7829 160.511L94.5195 157.262L86.8838 153.038L82.6599 139.391L85.7466 134.192L83.4722 128.344L80.223 123.145L78.111 119.409L68.8507 116.322L68.3633 128.506L63.4895 130.781L67.8759 139.391L68.8507 143.453L73.0747 144.59L76.4864 151.251L78.7608 154.825L83.1472 162.786H90.2955L90.7829 160.511Z" fill="currentColor" stroke="#DAAA63" strokeWidth="2.43691"/>
<path id="Cheongju" d="M34.0842 148.651L29.2104 150.601L24.499 147.839L18.488 147.352L13.7766 149.789L14.264 154.662L9.06523 157.424L7.92801 163.11L3.70403 165.547L4.67879 169.609H7.76555L6.79078 176.92L1.59204 180.494L4.19141 185.368L7.60309 190.566V199.014L13.9391 200.639L19.9501 207.3L19.4627 216.073L22.7119 220.946L18.9753 225.008L23.3618 225.495L25.9611 222.896L30.3476 226.47L30.51 235.405L39.1205 237.03L41.8823 238.98L46.2687 232.319L49.0306 229.069L50.8176 235.73L53.0921 237.842L51.4675 243.691L55.3665 251.164L57.641 246.453L58.6157 240.767L64.9517 238.655L71.2877 225.008L68.2009 215.098L80.7104 205.675L80.8729 199.989L88.0211 191.216L98.2562 196.415L103.455 193.978L107.354 194.465L111.091 199.014L116.939 191.054L102.318 175.295L106.217 168.147L93.7073 158.074L90.2956 160.674L89.8082 162.785H82.6599L78.2735 154.825L72.4249 144.752L68.2009 143.615L67.2262 141.178L59.753 146.215L51.305 141.991L42.6946 147.352L34.0842 148.651Z" fill="currentColor" stroke="#DAAA63" strokeWidth="2.43691"/>
<path id="Boeun" d="M64.4643 247.915L58.2908 246.29L59.7529 241.579L65.439 238.492L71.4501 224.033L68.6883 214.935L81.1977 205.513L81.3602 199.827L88.5085 191.054L98.7435 196.252L103.942 193.816L107.841 194.303L111.578 197.715L117.426 191.379L121.813 191.704L123.925 196.74L132.373 201.451H138.871L140.658 208.437L148.781 216.885L148.132 222.246L141.958 225.983L141.633 243.204L142.933 246.94L138.871 252.301L144.07 259.45L133.835 260.1L115.152 255.388L109.303 257.013L99.0684 248.89L96.3066 244.828L93.5447 240.117L85.0968 241.092L81.3602 245.803L80.0605 250.514L74.8618 249.54L73.0747 248.24L68.0384 252.301L64.9517 250.677L64.4643 247.915Z" fill="currentColor" stroke="#DAAA63" strokeWidth="2.43691"/>
<path id="Okcheon" d="M78.1111 316.636L89.9708 319.073L92.7326 303.639L98.9061 300.552L107.354 292.104L116.289 291.779L117.914 284.794L128.799 277.808L133.998 278.458L145.532 265.298L144.558 259.612L134.323 260.262L115.64 255.551L109.791 257.175L99.5559 249.052L94.0323 240.279L85.5843 241.254L81.8477 246.615L80.5481 250.677L75.3493 249.702L73.5622 248.402L68.526 252.464L65.1143 254.738L60.4029 256.363L59.4282 266.76L54.2294 271.147L52.6048 279.92L54.2294 286.581L52.1174 292.592L52.4423 300.715L58.9408 299.09L62.0275 297.79L66.089 304.126L73.8872 303.477L76.9739 306.888L78.1111 316.636Z" fill="currentColor" stroke="#DAAA63" strokeWidth="2.43691"/>
<path id="Yeongdong" d="M98.581 350.915L92.7324 355.951L86.8839 348.153L82.1725 337.106L75.6741 330.77L78.4359 324.109L78.111 316.636L89.9706 319.073L92.7324 303.639L98.9059 300.552L107.354 292.104L115.477 291.454L119.214 284.469L128.799 277.808L133.997 278.457L138.059 288.205L144.232 289.18C144.232 289.18 148.619 280.407 149.431 281.707C150.406 283.006 155.605 289.505 155.605 289.505L165.515 294.866L170.551 290.155L178.674 290.48L182.736 294.216L178.349 299.577L187.285 312.412L181.436 313.062L172.988 310.625L167.464 311.599L169.251 319.398L171.688 325.084L166.165 333.207L164.54 339.868L163.24 350.265L151.218 354.327L142.77 363.749L135.622 360.338L130.586 362.287L116.614 366.674L114.502 362.287L104.917 359.85L101.18 355.139L98.581 350.915Z" fill="currentColor" stroke="#DAAA63" strokeWidth="2.43691"/>
</g>
</g>
</g>
<defs>
<clipPath id="clip0_844_4165">
<rect width="325.49" height="368.152" fill="white"/>
</clipPath>
</defs>
</svg>
