<svg viewBox="0 0 512 512" fill="none" xmlns="http://www.w3.org/2000/svg">
<path fill-rule="evenodd" clip-rule="evenodd" d="M142.5 -0.5C147.5 -0.5 152.5 -0.5 157.5 -0.5C161.8 0.931677 165.8 3.09834 169.5 6C246 82.5 322.5 159 399 235.5C408.09 247.397 408.757 259.73 401 272.5C322.833 350.667 244.667 428.833 166.5 507C163.408 508.546 160.408 510.046 157.5 511.5C152.5 511.5 147.5 511.5 142.5 511.5C138.2 510.068 134.2 507.902 130.5 505C122.969 497.803 115.802 490.303 109 482.5C103.482 472.661 103.149 462.661 108 452.5C172.986 386.68 238.153 321.014 303.5 255.5C238.486 190.32 173.653 124.986 109 59.5C103.545 49.9917 103.211 40.325 108 30.5C116.136 21.3631 124.636 12.5298 133.5 4C136.592 2.45406 139.592 0.95406 142.5 -0.5Z" fill="currentColor"/>
</svg>
