<svg viewBox="0 0 512 512" fill="none" xmlns="http://www.w3.org/2000/svg">
<path d="M480 284C495.464 284 508 271.464 508 256C508 240.536 495.464 228 480 228V284ZM12.201 236.201C1.26633 247.136 1.26633 264.864 12.201 275.799L190.392 453.99C201.327 464.925 219.055 464.925 229.99 453.99C240.925 443.055 240.925 425.327 229.99 414.392L71.598 256L229.99 97.6081C240.925 86.6734 240.925 68.9448 229.99 58.0101C219.055 47.0754 201.327 47.0754 190.392 58.0101L12.201 236.201ZM480 228H32V284H480V228Z" fill="currentColor"/>
</svg>
