<svg viewBox="0 0 512 512" fill="none" xmlns="http://www.w3.org/2000/svg">
<path fill-rule="evenodd" clip-rule="evenodd" d="M164.5 25.5C225.168 25.3333 285.834 25.5 346.5 26C370.019 25.9028 392.352 30.9028 413.5 41C433.326 54.2023 445.159 72.7023 449 96.5C451.211 108.4 452.544 120.4 453 132.5C453.667 222.167 453.667 311.833 453 401.5C448.176 440.65 427.343 467.15 390.5 481C383.621 482.976 376.621 484.309 369.5 485C293.5 485.667 217.5 485.667 141.5 485C102.35 480.176 75.85 459.343 62 422.5C60.0242 415.621 58.6909 408.621 58 401.5C57.3333 311.833 57.3333 222.167 58 132.5C57.9028 108.981 62.9028 86.6477 73 65.5C87.3311 44.0675 107.498 31.9008 133.5 29C143.956 27.5607 154.289 26.3941 164.5 25.5ZM163.5 58.5C224.834 58.3333 286.168 58.5 347.5 59C359.711 59.1929 371.711 60.8596 383.5 64C397.673 67.5079 407.506 76.0079 413 89.5C416.105 98.2523 418.105 107.252 419 116.5C420.438 178.819 420.938 241.152 420.5 303.5C321.166 303.333 221.833 303.5 122.5 304C111.035 305.82 100.535 309.987 91 316.5C90.3333 255.167 90.3333 193.833 91 132.5C90.9663 117.765 93.2996 103.432 98 89.5C105.46 73.6667 117.96 64.5 135.5 62C144.931 60.4132 154.264 59.2465 163.5 58.5ZM134.5 335.5C229.833 335.5 325.167 335.5 420.5 335.5C420.938 359.205 420.438 382.872 419 406.5C411.964 432.536 395.131 447.703 368.5 452C293.167 452.667 217.833 452.667 142.5 452C117.799 447.906 101.299 434.072 93 410.5C90.1096 396.905 89.7763 383.238 92 369.5C98.9537 349.037 113.12 337.704 134.5 335.5Z" fill="currentColor"/>
<path fill-rule="evenodd" clip-rule="evenodd" d="M165.5 132.5C225.501 132.333 285.501 132.5 345.5 133C353.113 135.536 357.113 140.869 357.5 149C356.705 157.279 352.372 162.612 344.5 165C285.167 165.667 225.833 165.667 166.5 165C153.84 159.691 150.673 150.858 157 138.5C159.322 135.605 162.155 133.605 165.5 132.5Z" fill="currentColor"/>
<path fill-rule="evenodd" clip-rule="evenodd" d="M164.5 207.5C203.835 207.333 243.168 207.5 282.5 208C293.09 213.436 295.924 221.603 291 232.5C288.736 235.433 285.902 237.6 282.5 239C243.167 239.667 203.833 239.667 164.5 239C153.91 233.564 151.076 225.397 156 214.5C158.441 211.546 161.275 209.213 164.5 207.5Z" fill="currentColor"/>
</svg>
