<svg viewBox="0 0 512 512" fill="none" xmlns="http://www.w3.org/2000/svg">
<path fill-rule="evenodd" clip-rule="evenodd" fill="currentColor" d="M 121.5,47.5 C 139.635,45.0219 155.969,49.1886 170.5,60C 185.696,74.862 200.529,90.0286 215,105.5C 231.484,130.195 233.817,156.195 222,183.5C 217.042,200.213 220.542,214.88 232.5,227.5C 251.266,245.765 269.932,264.265 288.5,283C 298.558,289.597 309.558,291.93 321.5,290C 330.235,286.467 339.235,283.801 348.5,282C 370.838,278.916 390.838,284.25 408.5,298C 423.696,312.862 438.529,328.029 453,343.5C 467.238,367.033 466.905,390.366 452,413.5C 440.833,424.667 429.667,435.833 418.5,447C 400.929,459.854 381.262,465.187 359.5,463C 243.898,437.829 155.398,374.996 94,274.5C 72.3739,236.962 57.0406,196.962 48,154.5C 44.7311,131.241 50.0645,110.241 64,91.5C 74.8333,80.6667 85.6667,69.8333 96.5,59C 104.16,53.5113 112.493,49.678 121.5,47.5 Z M 132.5,79.5 C 138.712,80.1827 144.379,82.3493 149.5,86C 164.063,99.8942 177.896,114.394 191,129.5C 196.402,139.659 197.735,150.326 195,161.5C 180.771,194.017 185.104,223.684 208,250.5C 225.5,268 243,285.5 260.5,303C 278.729,319.297 300.063,325.964 324.5,323C 333.765,321.199 342.765,318.533 351.5,315C 364.881,312.679 376.881,315.679 387.5,324C 400,336.5 412.5,349 425,361.5C 431.909,371.601 432.242,381.935 426,392.5C 416.5,402 407,411.5 397.5,421C 386.993,428.502 375.326,431.502 362.5,430C 243.657,402.14 157.823,333.307 105,223.5C 94.402,200.039 86.402,175.706 81,150.5C 78.6652,136.508 81.6652,123.842 90,112.5C 99.1667,103.333 108.333,94.1667 117.5,85C 122.183,81.9779 127.183,80.1446 132.5,79.5 Z"/>
</svg>
