<svg viewBox="0 0 512 512" fill="none" xmlns="http://www.w3.org/2000/svg">
<path fill-rule="evenodd" clip-rule="evenodd" fill="currentColor" d="M 235.5,47.5 C 320.35,42.8426 386.183,75.5093 433,145.5C 464.682,199.287 472.015,256.287 455,316.5C 434.752,377.745 395.252,421.578 336.5,448C 260.724,476.4 190.391,466.733 125.5,419C 68.5583,370.909 42.7249,309.409 48,234.5C 58.8462,155.026 100.346,98.1931 172.5,64C 192.847,55.498 213.847,49.998 235.5,47.5 Z M 254.5,79.5 C 329.077,82.96 382.91,117.96 416,184.5C 442.42,251.498 433.42,313.165 389,369.5C 342.731,419.812 285.897,438.979 218.5,427C 157.123,411.957 114.623,375.124 91,316.5C 69.7368,252.403 80.0701,194.07 122,141.5C 157.39,102.055 201.556,81.3883 254.5,79.5 Z"/>
<path fill-rule="evenodd" clip-rule="evenodd" fill="currentColor" d="M 251.5,152.5 C 260.755,151.376 267.255,155.042 271,163.5C 271.333,191.833 271.667,220.167 272,248.5C 290.333,266.833 308.667,285.167 327,303.5C 332.771,317.964 328.105,326.631 313,329.5C 309.617,329.483 306.45,328.65 303.5,327C 283,306.5 262.5,286 242,265.5C 241.333,264.167 240.667,262.833 240,261.5C 239.333,228.833 239.333,196.167 240,163.5C 242.412,158.252 246.246,154.586 251.5,152.5 Z"/>
</svg>
