<svg viewBox="0 0 512 512" fill="none" xmlns="http://www.w3.org/2000/svg">
<path fill-rule="evenodd" clip-rule="evenodd" fill="currentColor" d="M 330.5,47.5 C 387.284,43.7963 428.451,67.1296 454,117.5C 471.593,162.686 465.593,204.353 436,242.5C 421.167,257.333 406.333,272.167 391.5,287C 380.614,292.557 372.114,290.057 366,279.5C 364.646,273.332 365.646,267.666 369,262.5C 384.362,247.471 399.362,232.138 414,216.5C 431.751,191.13 435.418,163.796 425,134.5C 409.652,100.229 383.152,81.8955 345.5,79.5C 326.78,80.4617 309.78,86.295 294.5,97C 278.862,111.638 263.529,126.638 248.5,142C 241.733,146.257 234.733,146.59 227.5,143C 220.137,136.058 218.97,128.225 224,119.5C 240.195,102.971 256.695,86.8043 273.5,71C 290.736,58.7099 309.736,50.8766 330.5,47.5 Z"/>
<path fill-rule="evenodd" clip-rule="evenodd" fill="currentColor" d="M 321.5,167.5 C 339.519,167.008 346.019,175.341 341,192.5C 291.5,242 242,291.5 192.5,341C 181.633,346.56 173.133,344.06 167,333.5C 165.909,327.903 166.576,322.57 169,317.5C 217.833,268.667 266.667,219.833 315.5,171C 317.432,169.541 319.432,168.375 321.5,167.5 Z"/>
<path fill-rule="evenodd" clip-rule="evenodd" fill="currentColor" d="M 127.5,220.5 C 144.715,223.278 149.548,232.612 142,248.5C 126.304,263.862 110.971,279.529 96,295.5C 79.603,319.989 75.9364,346.322 85,374.5C 104.148,417.325 136.982,435.492 183.5,429C 195.643,426.427 206.643,421.427 216.5,414C 232.858,398.641 248.858,382.974 264.5,367C 278.355,362.588 286.688,367.421 289.5,381.5C 289.132,384.638 288.299,387.638 287,390.5C 272.863,405.638 258.363,420.471 243.5,435C 207.944,463.751 168.278,471.085 124.5,457C 68.9535,432.769 43.4535,390.269 48,329.5C 51.2184,307.071 59.885,287.071 74,269.5C 89.5,254 105,238.5 120.5,223C 122.927,222.098 125.26,221.264 127.5,220.5 Z"/>
</svg>
