<svg viewBox="0 0 512 512" fill="none" xmlns="http://www.w3.org/2000/svg">
<path fill-rule="evenodd" clip-rule="evenodd" fill="currentColor" d="M 231.5,47.5 C 241.506,47.3335 251.506,47.5002 261.5,48C 270.482,52.4731 273.649,59.6397 271,69.5C 269.167,74 266,77.1667 261.5,79C 238.931,79.6929 216.598,82.3595 194.5,87C 143.059,101.105 108.226,133.271 90,183.5C 78.4983,227.579 77.4983,271.913 87,316.5C 105.056,378.555 145.89,415.389 209.5,427C 253.345,434.579 296.345,431.245 338.5,417C 390.497,392.98 420.33,352.48 428,295.5C 429.68,280.19 431.013,264.857 432,249.5C 436.473,240.518 443.64,237.351 453.5,240C 458,241.833 461.167,245 463,249.5C 464.845,283.099 460.178,315.765 449,347.5C 424.925,405.901 382.092,442.401 320.5,457C 272.934,466.495 225.601,465.495 178.5,454C 120.931,435.977 81.431,398.811 60,342.5C 47.8789,302.62 44.2123,261.954 49,220.5C 55.9788,146.251 93.1454,93.7507 160.5,63C 183.636,54.8084 207.303,49.6417 231.5,47.5 Z"/>
<path fill-rule="evenodd" clip-rule="evenodd" fill="currentColor" d="M 356.5,47.5 C 388.835,47.3334 421.168,47.5 453.5,48C 458,49.8333 461.167,53 463,57.5C 463.667,94.5 463.667,131.5 463,168.5C 457.646,179.064 449.479,181.897 438.5,177C 436.333,175.5 434.5,173.667 433,171.5C 431.7,150.564 431.034,129.564 431,108.5C 396.951,148.093 362.785,187.593 328.5,227C 317.635,231.746 309.468,228.913 304,218.5C 303.121,213.713 303.455,209.047 305,204.5C 340.5,163 376,121.5 411.5,80C 393.167,79.6667 374.833,79.3333 356.5,79C 345.91,73.5636 343.076,65.397 348,54.5C 350.464,51.519 353.297,49.1856 356.5,47.5 Z"/>
</svg>
