<svg viewBox="0 0 512 512" fill="none" xmlns="http://www.w3.org/2000/svg">
<path fill-rule="evenodd" clip-rule="evenodd" fill="currentColor" d="M236.5 79.5001C294.117 75.8712 344.45 93.0378 387.5 131C417.807 158.48 441.64 190.646 459 227.5C465.529 248.083 464.862 268.416 457 288.5C438.26 325.587 413.094 357.754 381.5 385C319.439 434.675 251.439 444.675 177.5 415C140.69 396.868 109.856 371.368 85 338.5C74.3333 323.841 64.6666 308.508 56 292.5C47.9788 276.729 45.3121 260.063 48 242.5C49.193 235.588 51.193 228.921 54 222.5C73.5711 183.196 100.404 149.696 134.5 122C164.721 98.7216 198.721 84.5549 236.5 79.5001ZM254.5 111.5C294.025 112.941 329.025 126.108 359.5 151C388.391 175.881 411.224 205.381 428 239.5C431.333 250.167 431.333 260.833 428 271.5C407.096 314.737 376.596 349.571 336.5 376C271.4 410.909 209.733 405.576 151.5 360C122.609 335.119 99.7758 305.619 83 271.5C79.6667 260.833 79.6667 250.167 83 239.5C103.904 196.263 134.404 161.429 174.5 135C199.285 120.345 225.952 112.512 254.5 111.5Z"/>
<path fill-rule="evenodd" clip-rule="evenodd" fill="currentColor" d="M243.5 171.5C280.659 168.331 309.159 182.331 329 213.5C341.419 238.228 342.753 263.562 333 289.5C312.878 328.312 281.045 344.479 237.5 338C200.802 328.303 178.969 304.803 172 267.5C168.335 226.317 184.835 196.484 221.5 178C228.77 175.188 236.104 173.021 243.5 171.5ZM246.5 204.5C216.477 213.061 202.643 233.061 205 264.5C213.3 294.792 233.133 308.625 264.5 306C294.781 297.709 308.614 277.875 306 246.5C297.693 216.381 277.859 202.381 246.5 204.5Z"/>
</svg>
