<svg viewBox="0 0 512 512" fill="none" xmlns="http://www.w3.org/2000/svg">
<path fill-rule="evenodd" clip-rule="evenodd" fill="currentColor" d="M 235.5,47.5 C 323.371,43.0132 390.538,77.6799 437,151.5C 473.666,220.825 473.666,290.159 437,359.5C 432.903,367.218 427.737,374.051 421.5,380C 407.411,384.459 399.077,379.459 396.5,365C 397.13,362.11 397.963,359.276 399,356.5C 433.104,305.765 440.104,251.432 420,193.5C 388.983,121.863 334.316,83.8626 256,79.5C 179.257,83.345 124.924,120.012 93,189.5C 70.7047,250.137 77.7047,307.137 114,360.5C 114.987,375.846 107.82,382.679 92.5,381C 89.0976,379.6 86.2643,377.433 84,374.5C 42.7622,310.685 36.0956,243.351 64,172.5C 98.5342,99.8014 155.701,58.1347 235.5,47.5 Z"/>
<path fill-rule="evenodd" clip-rule="evenodd" fill="currentColor" d="M 251.5,153.5 C 296.775,154.372 329.275,175.039 349,215.5C 361.848,249.898 358.514,282.565 339,313.5C 331.183,321.635 322.516,322.635 313,316.5C 308.865,311.526 307.532,305.86 309,299.5C 315.573,289.35 320.239,278.35 323,266.5C 326.072,229.126 310.239,203.626 275.5,190C 236.471,181.765 208.304,195.598 191,231.5C 185.509,246.392 185.175,261.392 190,276.5C 193.765,285.027 197.765,293.36 202,301.5C 201.428,317.717 193.261,323.55 177.5,319C 171.904,313.722 167.404,307.555 164,300.5C 145.833,257.966 151.833,219.299 182,184.5C 201.484,165.84 224.651,155.507 251.5,153.5 Z"/>
<path fill-rule="evenodd" clip-rule="evenodd" fill="currentColor" d="M 246.5,345.5 C 286.599,343.817 314.765,361.151 331,397.5C 332.961,402.677 334.294,408.01 335,413.5C 335.667,426.833 335.667,440.167 335,453.5C 330.527,462.482 323.36,465.649 313.5,463C 309,461.167 305.833,458 304,453.5C 303.752,441.141 303.086,428.808 302,416.5C 292.236,386.198 271.736,374.365 240.5,381C 223.657,387.178 213.157,399.011 209,416.5C 207.914,428.808 207.248,441.141 207,453.5C 201.748,463.032 193.915,465.865 183.5,462C 179.961,460.093 177.461,457.26 176,453.5C 175.333,440.167 175.333,426.833 176,413.5C 184.332,375 207.832,352.333 246.5,345.5 Z"/>
</svg>
