<svg viewBox="0 0 512 512" fill="none" xmlns="http://www.w3.org/2000/svg">
<path fill-rule="evenodd" clip-rule="evenodd" fill="currentColor" d="M331.5 -0.5C340.5 -0.5 349.5 -0.5 358.5 -0.5C419.026 9.18564 456.86 43.8523 472 103.5C479.687 146.019 477.354 188.019 465 229.5C460.202 246.226 455.202 262.893 450 279.5C448.016 282.746 445.182 284.912 441.5 286C398.167 286.667 354.833 286.667 311.5 286C308.438 284.939 305.938 283.106 304 280.5C287.826 236.137 277.16 190.47 272 143.5C268.465 112.444 270.465 81.7768 278 51.5C282.656 36.6796 290.49 23.8463 301.5 13C310.468 6.01244 320.468 1.51244 331.5 -0.5ZM342.5 27.5C388.87 29.7406 421.037 52.074 439 94.5C446.49 116.579 449.157 139.245 447 162.5C446.081 174.933 444.414 187.267 442 199.5C437.453 219.022 432.287 238.355 426.5 257.5C393.26 257.829 360.093 257.496 327 256.5C314.073 219.127 305.407 180.793 301 141.5C298.02 115.254 299.353 89.2536 305 63.5C307.966 50.3802 314.8 39.8802 325.5 32C331.087 29.6882 336.754 28.1882 342.5 27.5Z" />
<path fill-rule="evenodd" clip-rule="evenodd" fill="currentColor" d="M161.5 58.5C194.039 59.5448 216.205 75.2115 228 105.5C234.09 121.617 237.757 138.284 239 155.5C241.631 219.712 231.298 281.712 208 341.5C206.167 342.667 204.333 343.833 202.5 345C158.5 345.667 114.5 345.667 70.5 345C65.4517 342.282 62.2851 338.116 61 332.5C56.5357 316.774 51.869 301.107 47 285.5C37.0838 251.505 33.0838 216.838 35 181.5C37.6002 141.465 54.1002 108.632 84.5 83C107.702 66.952 133.369 58.7853 161.5 58.5ZM147.5 88.5C173.042 83.5178 190.875 92.8511 201 116.5C207.985 136.392 211.151 156.892 210.5 178C210.251 206.822 207.085 235.322 201 263.5C196.475 281.601 191.642 299.601 186.5 317.5C153.498 317.667 120.498 317.5 87.5 317C75.3341 283.836 67.5008 249.669 64 214.5C60.1625 180.99 67.4959 150.324 86 122.5C102.441 103.699 122.941 92.3653 147.5 88.5Z" />
<path fill-rule="evenodd" clip-rule="evenodd" fill="currentColor" d="M310.5 317.5C354.168 317.333 397.835 317.5 441.5 318C446.428 319.927 449.594 323.427 451 328.5C451.667 347.167 451.667 365.833 451 384.5C446.943 413.885 431.443 434.718 404.5 447C366.37 459.6 335.537 449.766 312 417.5C307.293 409.713 303.96 401.38 302 392.5C300.416 371.2 300.082 349.866 301 328.5C302.627 323.382 305.793 319.715 310.5 317.5ZM331.5 347.5C361.167 347.5 390.833 347.5 420.5 347.5C420.667 359.171 420.5 370.838 420 382.5C415.092 406.403 400.426 419.403 376 421.5C352.058 419.557 337.391 406.89 332 383.5C331.5 371.505 331.333 359.505 331.5 347.5Z" />
<path fill-rule="evenodd" clip-rule="evenodd" fill="currentColor" d="M147.5 511.5C139.5 511.5 131.5 511.5 123.5 511.5C88.1916 503.355 67.3582 481.355 61 445.5C60.3333 426.167 60.3333 406.833 61 387.5C63.195 380.302 68.0284 376.469 75.5 376C115.833 375.333 156.167 375.333 196.5 376C204.42 376.587 209.253 380.753 211 388.5C211.886 409.194 211.553 429.861 210 450.5C202.047 484.194 181.213 504.528 147.5 511.5ZM91.5 406.5C121.167 406.5 150.833 406.5 180.5 406.5C180.667 417.838 180.5 429.172 180 440.5C174.013 469.587 156.179 482.754 126.5 480C107.469 474.969 95.9693 462.802 92 443.5C91.5001 431.171 91.3335 418.838 91.5 406.5Z" />
</svg>
