<svg viewBox="0 0 512 512" fill="none" xmlns="http://www.w3.org/2000/svg">
<path fill-rule="evenodd" clip-rule="evenodd" fill="currentColor" d="M 243.5,25.5 C 336.849,24.5732 407.683,63.5732 456,142.5C 496.424,220.897 495.091,298.563 452,375.5C 406.004,446.195 340.504,482.862 255.5,485.5C 167.291,482.338 100.458,443.338 55,368.5C 14.5412,290.102 15.8746,212.435 59,135.5C 102.309,68.746 163.809,32.0794 243.5,25.5 Z M 244.5,58.5 C 325.317,57.9464 386.484,91.9464 428,160.5C 462.311,228.301 460.311,294.968 422,360.5C 382.484,419.399 326.984,450.066 255.5,452.5C 179.339,449.404 121.839,415.404 83,350.5C 49.2456,284.105 50.5789,218.438 87,153.5C 123.812,96.1635 176.312,64.4968 244.5,58.5 Z"/>
<path fill-rule="evenodd" clip-rule="evenodd" fill="currentColor" d="M 249.5,148.5 C 271.943,148.106 280.443,158.773 275,180.5C 266.41,192.21 255.577,194.71 242.5,188C 232.45,178.772 230.95,168.272 238,156.5C 241.482,153.161 245.315,150.494 249.5,148.5 Z"/>
<path fill-rule="evenodd" clip-rule="evenodd" fill="currentColor" d="M 251.5,217.5 C 260.755,216.376 267.255,220.042 271,228.5C 271.667,275.167 271.667,321.833 271,368.5C 264.389,379.158 255.556,381.324 244.5,375C 242.877,372.92 241.377,370.754 240,368.5C 239.333,321.833 239.333,275.167 240,228.5C 242.437,223.226 246.271,219.56 251.5,217.5 Z"/>
</svg>
