<svg width="512" height="512" viewBox="0 0 512 512" fill="none" xmlns="http://www.w3.org/2000/svg">
<g opacity="0.975">
<path fill-rule="evenodd" clip-rule="evenodd" d="M231.499 47.5C241.505 47.3335 251.505 47.5002 261.499 48C270.481 52.4731 273.648 59.6397 270.999 69.5C269.166 74 265.999 77.1667 261.499 79C238.93 79.6929 216.597 82.3595 194.499 87C143.058 101.105 108.225 133.271 89.9993 183.5C78.4976 227.579 77.4976 271.913 86.9993 316.5C105.055 378.555 145.889 415.389 209.499 427C253.344 434.579 296.344 431.245 338.499 417C390.496 392.98 420.329 352.48 427.999 295.5C429.679 280.19 431.012 264.857 431.999 249.5C436.472 240.518 443.639 237.351 453.499 240C457.999 241.833 461.166 245 462.999 249.5C464.844 283.099 460.177 315.765 448.999 347.5C424.924 405.901 382.091 442.401 320.499 457C272.933 466.495 225.6 465.495 178.499 454C120.93 435.977 81.4303 398.811 59.9993 342.5C47.8782 302.62 44.2116 261.954 48.9993 220.5C55.9781 146.251 93.1447 93.7507 160.499 63C183.635 54.8084 207.302 49.6417 231.499 47.5Z" fill="black"/>
<path fill-rule="evenodd" clip-rule="evenodd" d="M356.499 47.5C388.834 47.3334 421.167 47.5 453.499 48C457.999 49.8333 461.166 53 462.999 57.5C463.666 94.5 463.666 131.5 462.999 168.5C457.645 179.064 449.478 181.897 438.499 177C436.332 175.5 434.499 173.667 432.999 171.5C431.699 150.564 431.033 129.564 430.999 108.5C396.95 148.093 362.784 187.593 328.499 227C317.634 231.746 309.467 228.913 303.999 218.5C303.12 213.713 303.454 209.047 304.999 204.5C340.499 163 375.999 121.5 411.499 80C393.166 79.6667 374.832 79.3333 356.499 79C345.909 73.5636 343.075 65.397 347.999 54.5C350.463 51.519 353.296 49.1856 356.499 47.5Z" fill="black"/>
</g>
</svg>
