<svg viewBox="0 0 512 512" fill="none" xmlns="http://www.w3.org/2000/svg">
<path fill-rule="evenodd" clip-rule="evenodd" fill="currentColor" d="M 243.5,46.5 C 307.678,45.9874 354.511,73.9874 384,130.5C 389.378,143.009 393.044,156.009 395,169.5C 395.947,199.852 396.947,230.186 398,260.5C 399.888,265.945 402.555,270.945 406,275.5C 416.492,284.65 425.492,294.984 433,306.5C 446.163,340.999 436.997,367.832 405.5,387C 400.36,389.269 395.027,390.935 389.5,392C 298.167,392.667 206.833,392.667 115.5,392C 84.2552,385.056 67.2552,365.556 64.5,333.5C 64.8847,318.509 69.7181,305.176 79,293.5C 85.6667,286.833 92.3333,280.167 99,273.5C 102.142,268.882 104.476,263.882 106,258.5C 107.034,227.849 108.034,197.182 109,166.5C 121.947,104.551 159.114,65.7181 220.5,50C 228.279,48.5902 235.946,47.4235 243.5,46.5 Z M 244.5,79.5 C 292.406,79.0248 328.24,99.3581 352,140.5C 356.942,150.658 360.275,161.325 362,172.5C 363.256,201.475 363.923,230.475 364,259.5C 365.849,271.524 370.183,282.524 377,292.5C 384.636,301.137 392.636,309.47 401,317.5C 408.782,331.825 406.615,344.325 394.5,355C 391.618,356.608 388.618,357.941 385.5,359C 296.833,359.667 208.167,359.667 119.5,359C 101.312,353.126 94.8123,340.96 100,322.5C 107.221,312.273 115.554,302.94 125,294.5C 132.095,285.307 136.762,274.973 139,263.5C 140.274,234.864 140.941,206.197 141,177.5C 148.292,131.547 173.792,100.714 217.5,85C 226.505,82.5041 235.505,80.6707 244.5,79.5 Z"/>
<path fill-rule="evenodd" clip-rule="evenodd" fill="currentColor" d="M 212.5,431.5 C 238.835,431.333 265.169,431.5 291.5,432C 302.578,439.201 304.411,448.367 297,459.5C 295.167,460.667 293.333,461.833 291.5,463C 265.167,463.667 238.833,463.667 212.5,463C 201.853,456.915 199.353,448.415 205,437.5C 207.114,434.879 209.614,432.879 212.5,431.5 Z"/>
</svg>
