<svg viewBox="0 0 512 512" fill="none" xmlns="http://www.w3.org/2000/svg">
<path fill-rule="evenodd" clip-rule="evenodd" d="M241.067 33.1617C328.155 30.9124 390.911 68.6012 429.333 146.228C451.114 201.186 449.692 255.586 425.067 309.428C393.405 376.289 346.293 429.444 283.733 468.895C275.382 473.516 266.494 476.538 257.067 477.962C245.901 476.648 235.589 472.914 226.133 466.762C174.455 432.864 133.034 389.309 101.867 336.095C81.1765 301.044 69.9765 263.178 68.2667 222.495C71.7195 141.926 109.408 83.9714 181.333 48.6283C200.599 40.4352 220.511 35.2795 241.067 33.1617ZM242.133 68.3617C307.753 65.8734 357.353 92.5401 390.933 148.362C415.452 197.542 415.807 246.965 392 296.628C365.319 348.918 328.519 392.83 281.6 428.362C273.773 434.049 265.418 438.849 256.533 442.762C242.051 435.789 228.718 427.077 216.533 416.628C182.025 387.468 153.402 353.513 130.667 314.762C114.316 286.334 105.249 255.757 103.467 223.028C105.926 163.138 132.593 117.805 183.467 87.0283C202.023 77.2261 221.579 71.0038 242.133 68.3617Z" fill="currentColor"/>
<path fill-rule="evenodd" clip-rule="evenodd" d="M244.267 147.295C282.203 143.941 309.403 159.231 325.867 193.162C338.756 234.868 326.49 266.69 289.067 288.628C252.061 303.067 220.949 295.067 195.733 264.628C178.361 236.4 178.004 207.955 194.667 179.295C207.217 162.272 223.75 151.605 244.267 147.295ZM256 181.428C237.741 183.133 225.474 192.733 219.2 210.228C214.631 233.628 223.343 249.806 245.333 258.762C268.209 263.235 284.387 254.88 293.867 233.695C298.717 203.533 286.095 186.111 256 181.428Z" fill="currentColor"/>
</svg>
