<svg viewBox="0 0 514 512" fill="none" xmlns="http://www.w3.org/2000/svg">
<path d="M111.557 483.453C80.9752 483.453 54.8326 471.086 33.1293 446.352C11.426 420.628 0.574402 388.473 0.574402 349.888C0.574402 294.483 18.8249 236.605 55.3258 176.253C92.8133 115.901 139.673 70.3903 195.904 39.7197L238.817 128.763L232.898 134.699C208.235 155.476 188.012 175.264 172.228 194.062C156.443 211.87 145.098 236.11 138.193 266.781C154.964 266.781 172.721 277.664 191.465 299.43C210.208 321.196 219.58 345.93 219.58 373.633C219.58 399.356 209.222 424.091 188.505 447.836C167.788 471.581 142.139 483.453 111.557 483.453ZM385.314 483.453C354.732 483.453 328.59 471.086 306.887 446.352C285.183 420.628 274.332 388.473 274.332 349.888C274.332 294.483 292.582 236.605 329.083 176.253C366.571 115.901 412.937 70.3903 468.181 39.7197L512.574 128.763L506.655 134.699C481.993 155.476 461.769 175.264 445.985 194.062C430.201 211.87 418.856 236.11 411.95 266.781C427.734 266.781 445.492 277.664 465.222 299.43C484.952 321.196 494.817 345.93 494.817 373.633C494.817 399.356 483.966 424.091 462.262 447.836C441.546 471.581 415.896 483.453 385.314 483.453Z" fill="currentColor"/>
</svg>
