<svg viewBox="0 0 512 512" fill="none" xmlns="http://www.w3.org/2000/svg">
<path fill-rule="evenodd" clip-rule="evenodd" d="M 228.5,47.5 C 263.5,45.6225 298.167,48.1225 332.5,55C 384.633,70.1335 414.133,104.634 421,158.5C 421.667,244.5 421.667,330.5 421,416.5C 417.183,441.984 402.683,457.484 377.5,463C 366.908,464.338 356.574,463.338 346.5,460C 322.67,446.586 299.003,432.919 275.5,419C 265.419,412.652 254.752,411.318 243.5,415C 219.67,428.414 196.003,442.081 172.5,456C 154.003,465.627 135.336,465.96 116.5,457C 101.039,447.93 92.2058,434.43 90,416.5C 89.3333,330.5 89.3333,244.5 90,158.5C 95.9188,109.588 121.752,76.0879 167.5,58C 187.673,52.7497 208.006,49.2497 228.5,47.5 Z M 253.5,79.5 C 279.856,79.7112 305.856,82.8778 331.5,89C 364.251,101.329 383.084,124.829 388,159.5C 388.667,244.167 388.667,328.833 388,413.5C 384.01,426.746 375.177,432.246 361.5,430C 334.167,414.667 306.833,399.333 279.5,384C 263.5,378 247.5,378 231.5,384C 204.135,399.347 176.801,414.681 149.5,430C 137.692,432.515 129.192,428.348 124,417.5C 122.344,331.544 122.011,245.544 123,159.5C 127.916,124.829 146.749,101.329 179.5,89C 203.978,83.1907 228.644,80.0241 253.5,79.5 Z" fill="currentColor" />
</svg>
