<svg width="512" height="512" viewBox="0 0 512 512" fill="none" xmlns="http://www.w3.org/2000/svg">
<path opacity="0.967" fill-rule="evenodd" clip-rule="evenodd" d="M228.5 47.4999C263.5 45.6224 298.167 48.1224 332.5 54.9999C384.633 70.1334 414.133 104.634 421 158.5C421.667 244.5 421.667 330.5 421 416.5C417.183 441.984 402.683 457.484 377.5 463C366.908 464.338 356.574 463.338 346.5 460C322.67 446.586 299.003 432.919 275.5 419C265.419 412.652 254.752 411.318 243.5 415C219.67 428.414 196.003 442.081 172.5 456C154.003 465.627 135.336 465.96 116.5 457C101.039 447.93 92.2058 434.43 90 416.5C89.3333 330.5 89.3333 244.5 90 158.5C95.9188 109.588 121.752 76.0878 167.5 57.9999C187.673 52.7496 208.006 49.2496 228.5 47.4999ZM253.5 79.4999C279.856 79.7111 305.856 82.8777 331.5 88.9999C364.251 101.329 383.084 124.829 388 159.5C388.667 244.167 388.667 328.833 388 413.5C384.01 426.746 375.177 432.246 361.5 430C334.167 414.667 306.833 399.333 279.5 384C263.5 378 247.5 378 231.5 384C204.135 399.347 176.801 414.681 149.5 430C137.692 432.515 129.192 428.348 124 417.5C122.344 331.544 122.011 245.544 123 159.5C127.916 124.829 146.749 101.329 179.5 88.9999C203.978 83.1906 228.644 80.024 253.5 79.4999Z" fill="black"/>
</svg>
