<svg width="512" height="512" viewBox="0 0 512 512" fill="none" xmlns="http://www.w3.org/2000/svg">
<path opacity="0.963" fill-rule="evenodd" clip-rule="evenodd" d="M210.5 76.5001C280.515 72.5773 332.015 101.244 365 162.5C385.676 209.962 384.01 256.629 360 302.5C355.781 309.772 350.948 316.605 345.5 323C374.333 351.833 403.167 380.667 432 409.5C436.438 418.279 434.938 425.779 427.5 432C421.528 435.265 415.528 435.265 409.5 432C380.667 403.167 351.833 374.333 323 345.5C286.886 373.738 246.052 384.238 200.5 377C146.046 365.211 107.879 333.711 85.9998 282.5C64.8287 218.36 77.9953 162.527 125.5 115C150.032 93.7676 178.365 80.9342 210.5 76.5001ZM213.5 108.5C274.818 105.717 317.318 132.384 341 188.5C356.004 239.995 343.837 283.828 304.5 320C265.031 350.1 222.364 355.434 176.5 336C123.851 306.867 102.018 262.367 111 202.5C125.29 149.372 159.457 118.039 213.5 108.5Z" fill="black"/>
</svg>
