<?xml version="1.0" encoding="UTF-8"?>
<!DOCTYPE svg PUBLIC "-//W3C//DTD SVG 1.1//EN" "http://www.w3.org/Graphics/SVG/1.1/DTD/svg11.dtd">
<svg xmlns="http://www.w3.org/2000/svg" version="1.1" width="512px" height="512px" style="shape-rendering:geometricPrecision; text-rendering:geometricPrecision; image-rendering:optimizeQuality; fill-rule:evenodd; clip-rule:evenodd" xmlns:xlink="http://www.w3.org/1999/xlink">
<g><path style="opacity:0.968" fill="#000000" d="M 113.5,41.5 C 208.167,41.3333 302.834,41.5 397.5,42C 423.402,45.5672 440.568,59.7339 449,84.5C 466.981,192.477 473.315,301.143 468,410.5C 461.418,441.75 442.251,458.917 410.5,462C 350.929,466.965 291.262,469.299 231.5,469C 184.756,467.662 138.09,464.995 91.5,461C 64.4744,454.64 48.3078,437.807 43,410.5C 37.4615,300.059 44.1282,190.392 63,81.5C 72.0935,58.225 88.9269,44.8917 113.5,41.5 Z M 114.5,75.5 C 208.501,75.3333 302.501,75.5 396.5,76C 407.342,78.8421 414.175,85.6755 417,96.5C 429.543,175.85 435.71,255.684 435.5,336C 435.518,359.846 435.018,383.679 434,407.5C 430.969,419.196 423.469,426.03 411.5,428C 332.943,435.341 254.277,437.008 175.5,433C 150.152,431.555 124.819,429.888 99.5,428C 87.5312,426.03 80.0312,419.196 77,407.5C 74.3306,343.438 75.3306,279.438 80,215.5C 83.7633,175.727 88.4299,136.06 94,96.5C 97.0073,85.6604 103.841,78.6604 114.5,75.5 Z"/></g>
<g><path style="opacity:0.963" fill="#000000" d="M 162.5,129.5 C 172.549,127.773 179.715,131.44 184,140.5C 184.199,170.084 196.699,192.584 221.5,208C 256.606,223.845 286.772,217.345 312,188.5C 321.935,174.107 326.935,158.107 327,140.5C 331.279,131.277 338.446,127.777 348.5,130C 357.707,133.746 361.373,140.579 359.5,150.5C 356.357,192.974 335.69,223.474 297.5,242C 250.944,259.067 210.444,249.9 176,214.5C 160.653,195.965 152.486,174.632 151.5,150.5C 151.436,146.081 151.936,141.748 153,137.5C 155.735,134.231 158.901,131.564 162.5,129.5 Z"/></g>
</svg>
