<svg viewBox="0 0 512 512" fill="none" xmlns="http://www.w3.org/2000/svg">
<path d="M262.941 15.7482L311.316 173.166C314.79 184.472 325.208 192.234 337.06 192.234H495.342C501.869 192.234 504.935 200.725 499.534 204.874L370.042 304.35C361.076 311.237 357.357 322.988 360.674 333.783L409.787 493.602C411.856 500.334 404.185 505.307 398.969 501.3L272.691 404.293C263.027 396.87 249.604 396.87 239.94 404.293L113.662 501.3C108.446 505.307 100.775 500.334 102.844 493.602L151.957 333.783C155.274 322.988 151.555 311.237 142.589 304.35L13.0967 204.874C7.69565 200.725 10.7621 192.234 17.2883 192.234H175.571C187.423 192.234 197.841 184.472 201.315 173.166L249.69 15.7482C251.715 9.1582 260.916 9.1581 262.941 15.7482Z" stroke="currentColor" stroke-width="20"/>
</svg>
