<svg viewBox="0 0 512 512" fill="none" xmlns="http://www.w3.org/2000/svg">
<path d="M240.131 12.8107C245.05 -3.19606 267.581 -3.19601 272.5 12.8108L320.875 170.229C323.068 177.366 329.631 182.234 337.06 182.234H495.343C511.546 182.234 518.502 202.913 505.626 212.805L376.134 312.28C370.493 316.614 368.137 324.025 370.233 330.846L419.346 490.665C424.215 506.51 405.983 519.298 392.877 509.23L266.599 412.224C260.528 407.56 252.103 407.56 246.032 412.224L119.754 509.23C106.647 519.298 88.416 506.51 93.2854 490.664L142.398 330.846C144.494 324.025 142.138 316.614 136.497 312.28L7.00479 212.805C-5.87139 202.913 1.08477 182.234 17.2883 182.234H175.571C183 182.234 189.563 177.366 191.756 170.229L240.131 12.8107Z" fill="currentColor"/>
</svg>
