<svg width="18" height="17" viewBox="0 0 18 17" fill="none" xmlns="http://www.w3.org/2000/svg">
<path d="M8.61877 0.915319C8.81465 0.312458 9.66754 0.312457 9.86342 0.915318L11.4448 5.78218C11.5324 6.05178 11.7836 6.23432 12.0671 6.23432H17.1844C17.8183 6.23432 18.0818 7.04547 17.569 7.41806L13.429 10.4259C13.1997 10.5926 13.1037 10.8879 13.1913 11.1575L14.7727 16.0244C14.9685 16.6272 14.2785 17.1286 13.7657 16.756L9.62571 13.7481C9.39637 13.5815 9.08582 13.5815 8.85648 13.7481L4.71648 16.756C4.20366 17.1286 3.51366 16.6272 3.70954 16.0244L5.29088 11.1575C5.37848 10.8879 5.28251 10.5926 5.05317 10.4259L0.913171 7.41806C0.400348 7.04547 0.663903 6.23432 1.29779 6.23432H6.41511C6.69859 6.23432 6.94983 6.05179 7.03743 5.78218L8.61877 0.915319Z" fill="#D7AB64"/>
</svg>
