<svg viewBox="0 0 512 512" fill="none" xmlns="http://www.w3.org/2000/svg">
<path d="M261.503 18.1385L308.582 169.888C312.855 183.663 325.373 193.582 340.133 193.582H492.482C494.939 193.582 497.027 194.994 497.985 198.084C498.955 201.21 498.098 204.158 495.675 206.002L372.422 299.788C360.878 308.572 356.332 323.803 360.579 337.491L407.657 489.241C408.745 492.748 407.461 495.55 405.347 497.159C404.27 497.978 403.152 498.332 402.219 498.361C401.405 498.387 400.318 498.192 398.961 497.159L275.708 403.373C264.001 394.465 247.999 394.465 236.292 403.373L113.039 497.159C111.682 498.192 110.595 498.387 109.781 498.361C108.848 498.332 107.73 497.978 106.653 497.159C104.539 495.55 103.255 492.748 104.343 489.241L151.421 337.492C155.668 323.803 151.123 308.572 139.578 299.788L16.3252 206.002C13.902 204.158 13.045 201.21 14.015 198.084C14.9733 194.994 17.0612 193.582 19.5181 193.582H171.867C186.627 193.582 199.145 183.663 203.418 169.888L250.497 18.1385C251.093 16.2183 252.017 15.2002 252.825 14.6234C253.707 13.9942 254.815 13.6366 256 13.6366C257.185 13.6366 258.293 13.9942 259.175 14.6234C259.983 15.2002 260.907 16.2183 261.503 18.1385Z" stroke="currentColor" stroke-width="20"/>
</svg>


