<svg width="19" height="17" viewBox="0 0 19 17" fill="none" xmlns="http://www.w3.org/2000/svg">
<path d="M9.34395 1.05686C9.40271 0.876004 9.65858 0.876004 9.71734 1.05686L11.2987 5.92372C11.4476 6.38205 11.8747 6.69237 12.3566 6.69237H17.474C17.6641 6.69237 17.7432 6.93571 17.5893 7.04749L13.4493 10.0554C13.0595 10.3386 12.8963 10.8407 13.0452 11.2991L14.6266 16.1659C14.6853 16.3468 14.4783 16.4972 14.3245 16.3854L10.1845 13.3775C9.79462 13.0943 9.26668 13.0943 8.8768 13.3775L4.7368 16.3854C4.58295 16.4972 4.37595 16.3468 4.43471 16.1659L6.01605 11.2991C6.16497 10.8407 6.00183 10.3386 5.61195 10.0554L1.47195 7.04749C1.31811 6.93571 1.39718 6.69237 1.58734 6.69237H6.70466C7.18658 6.69237 7.61369 6.38205 7.76261 5.92372L9.34395 1.05686Z" stroke="#9F948D" stroke-width="0.916091"/>
</svg>
