<svg viewBox="0 0 512 512" fill="none" xmlns="http://www.w3.org/2000/svg">
<path d="M256 0.805664C249.137 0.805649 242.275 4.80734 239.815 12.8107L191.44 170.229C189.247 177.366 182.685 182.234 175.256 182.234H16.9728C0.769344 182.234 -6.18682 202.913 6.68936 212.805L136.181 312.28C141.823 316.614 144.179 324.025 142.083 330.846L92.9699 490.664C88.1005 506.51 106.332 519.298 119.438 509.23L245.716 412.224C248.752 409.892 252.376 408.726 256 408.726V0.805664Z" fill="currentColor"/>
<path fill-rule="evenodd" clip-rule="evenodd" d="M256 408.92C259.624 408.92 263.248 410.086 266.284 412.418L392.562 509.424C405.668 519.493 423.899 506.704 419.03 490.859L369.917 331.04C367.821 324.219 370.177 316.808 375.819 312.474L505.311 212.999C518.187 203.108 511.231 182.428 495.027 182.428H336.744C329.315 182.428 322.753 177.561 320.56 170.423L272.185 13.0051C269.725 5.00173 262.863 1.00002 256 1V28.4244L301.442 176.298C306.197 191.771 320.47 202.428 336.744 202.428H486.241L363.635 296.614C351.344 306.055 346.261 322.145 350.8 336.915L397.144 487.724L278.467 396.558C271.839 391.466 263.92 388.92 256 388.92V408.92Z" fill="currentColor"/>
</svg>
