<svg width="328" height="392" viewBox="0 0 328 392" fill="none" xmlns="http://www.w3.org/2000/svg">
<path id="Haenam" d="M56.448 20.0467L29.2854 2.0918L17.7759 34.3185L1.20215 48.5904V97.3909L17.7759 106.138V124.093L37.1119 146.191L38.0327 154.018L87.2936 168.29L91.8974 186.245L115.837 172.894L137.936 194.992L143 213.867L145.762 252.079L138.856 260.826L159.113 282.925L178.449 268.653L173.845 291.672C173.845 291.672 159.113 298.578 158.192 303.182C157.272 307.785 149.445 340.472 149.445 340.472L172.464 338.631L177.068 360.729L180.751 389.273L206.072 367.175L237.838 371.778L236.918 338.171L249.348 328.503L240.601 308.706L267.763 292.593L300.45 272.336L319.786 265.891L326.692 252.54L319.786 247.015L298.609 242.411L296.767 194.992L288.941 186.245L302.292 165.988L290.782 139.286L308.277 107.059L303.213 100.614L306.896 80.3567L299.069 64.2434L284.797 56.4169L264.541 69.768L211.136 65.1642L212.978 84.0398L249.808 105.217L222.646 109.821L203.31 93.7078L186.736 90.9455L185.815 111.202L154.97 96.9305L125.966 75.7529L140.237 51.8131L125.966 49.9716L120.901 58.7188L104.328 49.9716L95.5805 51.8131L96.5012 67.9264L95.5805 92.7871L114.916 88.1833L125.505 103.376L150.826 122.251L143.921 142.508L107.09 122.712L84.9917 117.187L75.3236 78.9756L63.8141 54.115L68.4179 37.0808L60.5914 30.6355L56.448 20.0467Z" fill="black" stroke="#DAAA63" strokeWidth="2"/>
</svg>
