<svg width="329" height="337" viewBox="0 0 329 337" fill="none" xmlns="http://www.w3.org/2000/svg">
<g id="Jindo">
<path d="M211.878 1.48828L200.593 25.8407L219.6 34.1561L224.351 59.6964C224.351 59.6964 188.12 63.2602 184.556 63.2602C180.992 63.2602 179.804 81.6729 179.804 81.6729L170.895 97.7099L154.858 86.4246L147.137 113.747L101.996 144.633L73.4856 174.331L93.6803 214.72L116.251 224.817L113.875 240.854L159.016 246.794L205.345 229.569L246.328 201.059L277.214 183.834L276.026 195.119L307.506 157.106L303.942 125.032L327.7 111.371L321.167 85.2367L277.214 46.0353L257.019 38.9078L255.831 26.4347L211.878 1.48828ZM29.5326 297.874L23.593 289.559L2.21045 321.633L29.5326 335.294L68.14 334.106L66.9521 303.22L48.5393 302.032L29.5326 297.874Z" fill="black"/>
<path d="M211.878 1.48828L200.593 25.8407L219.6 34.1561L224.351 59.6964C224.351 59.6964 188.12 63.2602 184.556 63.2602C180.992 63.2602 179.804 81.6729 179.804 81.6729L170.895 97.7099L154.858 86.4246L147.137 113.747L101.996 144.633L73.4856 174.331L93.6803 214.72L116.251 224.817L113.875 240.854L159.016 246.794L205.345 229.569L246.328 201.059L277.214 183.834L276.026 195.119L307.506 157.106L303.942 125.032L327.7 111.371L321.167 85.2367L277.214 46.0353L257.019 38.9078L255.831 26.4347L211.878 1.48828Z" fill="black"/>
<path d="M29.5326 297.874L23.593 289.559L2.21045 321.633L29.5326 335.294L68.14 334.106L66.9521 303.22L48.5393 302.032L29.5326 297.874Z" fill="black"/>
<path d="M211.878 1.48828L200.593 25.8407L219.6 34.1561L224.351 59.6964C224.351 59.6964 188.12 63.2602 184.556 63.2602C180.992 63.2602 179.804 81.6729 179.804 81.6729L170.895 97.7099L154.858 86.4246L147.137 113.747L101.996 144.633L73.4856 174.331L93.6803 214.72L116.251 224.817L113.875 240.854L159.016 246.794L205.345 229.569L246.328 201.059L277.214 183.834L276.026 195.119L307.506 157.106L303.942 125.032L327.7 111.371L321.167 85.2367L277.214 46.0353L257.019 38.9078L255.831 26.4347L211.878 1.48828Z" fill="black"/>
<path d="M29.5326 297.874L23.593 289.559L2.21045 321.633L29.5326 335.294L68.14 334.106L66.9521 303.22L48.5393 302.032L29.5326 297.874Z" fill="black"/>
<path d="M211.878 1.48828L200.593 25.8407L219.6 34.1561L224.351 59.6964C224.351 59.6964 188.12 63.2602 184.556 63.2602C180.992 63.2602 179.804 81.6729 179.804 81.6729L170.895 97.7099L154.858 86.4246L147.137 113.747L101.996 144.633L73.4856 174.331L93.6803 214.72L116.251 224.817L113.875 240.854L159.016 246.794L205.345 229.569L246.328 201.059L277.214 183.834L276.026 195.119L307.506 157.106L303.942 125.032L327.7 111.371L321.167 85.2367L277.214 46.0353L257.019 38.9078L255.831 26.4347L211.878 1.48828ZM29.5326 297.874L23.593 289.559L2.21045 321.633L29.5326 335.294L68.14 334.106L66.9521 303.22L48.5393 302.032L29.5326 297.874Z" stroke="#DAAA63" strokeWidth="2"/>
</g>
</svg>
