<svg width="328" height="209" viewBox="0 0 328 209" fill="none" xmlns="http://www.w3.org/2000/svg">
<g id="Gunsan">
<path d="M236.371 135.049L260.912 119.119L291.48 120.841L316.021 76.926L326.785 43.7742L303.105 23.1082L297.508 2.44214L267.37 25.6914L234.649 26.9831L216.566 46.788L199.344 48.9407L183.845 47.2186L178.248 58.8432L112.375 67.0235L104.195 76.0649L95.1532 70.8984L97.7364 85.1063L123.999 95.0087L137.777 103.189V137.202L172.22 139.785L183.845 135.48L201.067 137.202L206.664 143.229L216.566 139.785L236.371 135.049ZM3.87818 181.548L1.29492 206.519L15.9334 199.2L3.87818 181.548Z" fill="black"/>
<path d="M236.371 135.049L260.912 119.119L291.48 120.841L316.021 76.926L326.785 43.7742L303.105 23.1082L297.508 2.44214L267.37 25.6914L234.649 26.9831L216.566 46.788L199.344 48.9407L183.845 47.2186L178.248 58.8432L112.375 67.0235L104.195 76.0649L95.1532 70.8984L97.7364 85.1063L123.999 95.0087L137.777 103.189V137.202L172.22 139.785L183.845 135.48L201.067 137.202L206.664 143.229L216.566 139.785L236.371 135.049Z" fill="black"/>
<path d="M3.87818 181.548L1.29492 206.519L15.9334 199.2L3.87818 181.548Z" fill="black"/>
<path d="M236.371 135.049L260.912 119.119L291.48 120.841L316.021 76.926L326.785 43.7742L303.105 23.1082L297.508 2.44214L267.37 25.6914L234.649 26.9831L216.566 46.788L199.344 48.9407L183.845 47.2186L178.248 58.8432L112.375 67.0235L104.195 76.0649L95.1532 70.8984L97.7364 85.1063L123.999 95.0087L137.777 103.189V137.202L172.22 139.785L183.845 135.48L201.067 137.202L206.664 143.229L216.566 139.785L236.371 135.049ZM3.87818 181.548L1.29492 206.519L15.9334 199.2L3.87818 181.548Z" fill="black"/>
<path d="M236.371 135.049L260.912 119.119L291.48 120.841L316.021 76.926L326.785 43.7742L303.105 23.1082L297.508 2.44214L267.37 25.6914L234.649 26.9831L216.566 46.788L199.344 48.9407L183.845 47.2186L178.248 58.8432L112.375 67.0235L104.195 76.0649L95.1532 70.8984L97.7364 85.1063L123.999 95.0087L137.777 103.189V137.202L172.22 139.785L183.845 135.48L201.067 137.202L206.664 143.229L216.566 139.785L236.371 135.049ZM3.87818 181.548L1.29492 206.519L15.9334 199.2L3.87818 181.548Z" stroke="#DAAA63" strokeWidth="2"/>
</g>
</svg>
