<svg width="329" height="283" viewBox="0 0 329 283" fill="none" xmlns="http://www.w3.org/2000/svg">
<path id="Changwon" d="M147.68 27.9559L139.115 40.5788L140.467 58.1606L149.934 67.177V81.6031L157.147 103.242L132.803 99.185L107.558 110.906L97.1888 100.537L89.9758 116.316L77.8037 139.759L89.5249 159.595L86.3692 172.668L70.1398 173.119L59.3202 192.053L41.7383 178.529L32.722 159.595L14.6893 170.865L9.73028 216.848L2.06641 234.43L23.2548 242.094L42.1891 257.873L57.0661 259.225L68.7874 270.496L83.6643 260.127L68.3365 245.701L75.5496 238.488L97.6396 246.151L107.107 242.094L120.18 232.176L135.508 249.758L149.934 253.815L142.721 270.045L158.049 271.848L153.541 280.864L181.492 276.356L186.451 261.93L176.983 254.266L175.18 245.25L162.107 216.397L165.262 203.324L154.893 188.898L146.328 174.021L161.205 159.595L169.77 179.881L180.59 200.619V212.34L192.762 202.422L209.442 211.438L222.967 202.422L230.18 223.16L222.967 240.291L243.704 248.856L267.598 247.504L291.04 235.783L292.843 253.364L314.032 247.955L327.556 236.233L324.851 221.356L302.761 206.93L298.253 194.307L260.835 180.783L259.483 153.283L249.114 150.578L244.155 120.373L224.319 74.39L249.565 54.5541L255.876 63.5704L272.557 36.0706L250.467 37.423L218.909 10.8248L196.369 9.02155V13.0789L161.656 1.35767L143.623 11.7264L147.68 27.9559Z" fill="black" stroke="#DAAA63" strokeWidth="2"/>
</svg>
