<svg width="328" height="397" viewBox="0 0 328 397" fill="none" xmlns="http://www.w3.org/2000/svg">
<path id="Changnyeong" d="M50.7428 289.61L81.5034 256.703L42.8738 225.228L24.2744 223.081L1.38281 185.883L13.544 152.976L11.3978 115.777L30.7127 97.893L57.8964 95.0315L105.826 63.5556L170.208 61.4095L178.077 15.6263L183.8 3.46509L191.669 28.5028L201.684 61.4095L283.951 134.376L257.483 146.538L263.921 179.444L243.175 198.044L255.337 225.228L245.321 250.265L255.337 291.756L298.258 300.341L326.873 339.686L322.581 395.484L267.498 376.884L238.883 393.338L179.508 368.3L140.879 393.338L100.103 386.9L93.6645 349.701L42.1585 328.955L50.7428 289.61Z" fill="black" stroke="#DAAA63" strokeWidth="2"/>
</svg>
