<svg width="329" height="303" viewBox="0 0 329 303" fill="none" xmlns="http://www.w3.org/2000/svg">
<path id="Gimhae" d="M116.757 301.367L57.2735 279.98L55.2684 239.21L39.8962 235.2L32.5442 190.42L1.7998 118.906L39.8962 93.5081L49.2531 106.875L73.9824 66.1054L106.732 60.0902L179.583 1.94312L190.945 32.6875L235.056 42.7129L277.163 75.4624L283.178 108.212L327.29 142.967L309.912 187.746L256.444 209.134L237.062 228.516C237.062 228.516 202.307 230.521 196.96 230.521C191.613 230.521 181.588 265.276 181.588 265.276L183.593 292.679L156.859 279.311L143.492 296.689L116.757 301.367Z" fill="black" stroke="#DAAA63" strokeWidth="2"/>
</svg>
