<svg width="329" height="237" viewBox="0 0 329 237" fill="none" xmlns="http://www.w3.org/2000/svg">
<path id="Goseong" d="M4.95662 213.177L37.039 143.179L55.1217 139.679L47.5387 104.68L72.0379 88.9304V74.3475L93.0372 51.5983L74.3712 39.3486L91.2873 13.6828L120.453 1.43311L212.617 3.76642L210.867 10.7662L238.283 20.6825L262.782 41.0986L285.531 45.1818L297.198 56.8481L279.698 62.098L245.283 70.8477L231.866 94.7636L221.95 121.596L248.782 94.7636L263.365 81.3474L282.031 80.1807L301.864 64.4312L314.114 59.7646L303.031 82.514L327.53 100.597L326.363 127.429L288.448 137.346L266.282 132.679L265.115 141.429L291.948 151.345L251.699 163.595L235.949 182.844L209.117 195.094L193.368 177.011L176.451 191.594L164.202 228.926L144.369 226.593L132.119 195.094L88.954 197.427L86.6208 235.926H25.3727L2.04004 227.176L4.95662 213.177Z" fill="black" stroke="#DAAA63" strokeWidth="2"/>
</svg>
