<svg width="329" height="432" viewBox="0 0 329 432" fill="none" xmlns="http://www.w3.org/2000/svg">
<path id="Hadong" d="M36.5492 8.99767L2 40.5162L14.7287 62.9429L48.0656 107.19L43.2166 164.772L102.011 218.717L106.86 261.146L141.409 289.028L150.501 307.818L169.291 316.304L178.383 355.096L191.112 353.884L186.262 380.553L169.897 396.919L182.626 424.801L222.024 430.862L241.42 418.133L249.3 429.65L289.91 419.345L308.7 386.615V353.884L317.792 350.247L311.125 301.151L299.608 269.632L303.245 243.569L274.151 215.687L289.304 204.17L317.186 205.383L327.49 196.291L311.125 169.621L283.243 152.044L282.03 121.737L275.969 95.0676L265.665 85.9757L236.571 122.343L179.595 118.707L149.289 92.037L109.891 67.1858L112.315 10.816L44.4289 1.72412L36.5492 8.99767Z" fill="black" stroke="#DAAA63" strokeWidth="2"/>
</svg>
