<svg width="329" height="309" viewBox="0 0 329 309" fill="none" xmlns="http://www.w3.org/2000/svg">
<path id="Haman" d="M19.2748 198.723L1.69971 186.772L31.2258 156.543L27.0078 127.719L38.9588 93.9754L52.3159 53.2012L77.624 63.0433L101.526 80.6183L129.646 79.2123L124.022 58.8253L156.36 57.4192L166.905 23.6751L209.085 26.4872L247.047 1.88208L301.882 30.7052L312.427 51.0922L303.288 68.6673L299.07 93.2724L312.427 115.065L315.942 134.749L327.19 168.494L285.713 162.87L251.968 176.227L233.69 164.276L206.273 225.437L221.036 256.369L216.115 276.756L190.807 277.459L173.935 306.985L146.518 285.895L133.161 260.587L103.635 273.241L76.2179 254.963H52.3159L19.2748 198.723Z" fill="black" stroke="#DAAA63" strokeWidth="2"/>
</svg>
