<svg width="329" height="631" viewBox="0 0 329 631" fill="none" xmlns="http://www.w3.org/2000/svg">
<path id="Hamyang" d="M180.441 593.488L138.292 629.394L51.6503 617.685L33.6976 588.024L38.381 549.777L85.214 506.847L100.825 466.258L67.2614 452.989L58.6753 417.084L74.2863 389.764L40.7226 328.881L2.47559 288.293L29.0143 267.998L37.6004 238.337L60.2364 215.701L42.2837 163.404L60.2364 113.449L86.7752 90.8131L95.3612 32.2718L100.045 2.61084L142.194 34.6135L146.878 61.9327L191.369 48.6634L216.347 78.3243L265.521 121.255L299.085 157.16L325.624 150.135L327.966 220.385L292.06 278.926L307.671 288.293L274.108 338.248L263.18 374.153L258.496 412.4L238.202 455.331L180.441 593.488Z" fill="black" stroke="#DAAA63" strokeWidth="2"/>
</svg>
