<svg width="328" height="449" viewBox="0 0 328 449" fill="none" xmlns="http://www.w3.org/2000/svg">
<path id="Hapcheon" d="M113.265 447.017L81.5618 404.217H58.8409L22.3818 346.094L1.24609 307.521L32.9497 237.245L43.5175 188.105L78.3915 151.117L101.112 144.776L73.6359 61.8187L68.8804 46.4953L106.925 2.11035L124.89 10.0362L141.27 45.967L159.236 54.9496L181.428 86.6532L195.695 128.396L159.236 154.816L162.934 165.912L184.598 173.838L192.524 182.821L215.774 187.048L232.682 174.895L280.238 172.781L307.714 185.991L326.736 213.467L314.055 231.433L315.64 262.08L305.072 278.988L321.981 306.465V324.958L260.159 311.22L222.114 337.111L193.581 347.679L190.411 387.309L183.013 421.126L148.139 424.296L113.265 447.017Z" fill="black" stroke="#DAAA63" strokeWidth="2"/>
</svg>
