<svg width="329" height="248" viewBox="0 0 329 248" fill="none" xmlns="http://www.w3.org/2000/svg">
<path id="Jinju" d="M191.924 211.872L177.17 194.814L143.515 207.262L131.989 192.97L114.47 185.133L83.5805 197.58L70.2106 161.159L36.5551 162.081L24.1072 141.795L2.89959 128.425L1.97754 105.374L14.4254 106.296L21.341 86.4713H52.2302L60.0678 68.491L84.0416 38.9848L109.398 33.4523L114.47 16.3941L137.522 6.71239L155.963 18.2382L173.482 2.10205L194.69 18.2382L191.001 44.0561L205.294 66.1858L227.423 74.9454L258.312 74.0233L269.838 80.4778L293.812 118.744H309.487L327.468 130.731L322.396 177.756L314.098 191.126L242.637 188.36L219.586 198.041L206.216 218.327L222.813 228.009L204.371 245.989L180.398 230.775L191.924 211.872Z" fill="black" stroke="#DAAA63" strokeWidth="2"/>
</svg>
