<svg width="329" height="273" viewBox="0 0 329 273" fill="none" xmlns="http://www.w3.org/2000/svg">
<path id="Miryang" d="M164.491 265.304L210.07 229.138L235.832 200.404L258.621 201.89L251.685 177.615L287.355 164.734L285.869 126.091L302.713 94.3846L293.3 85.9624V69.6136L323.025 52.274L327.484 30.4756L315.594 12.6405L295.777 31.4664L275.961 11.1542L251.685 1.24585L216.015 14.1267L197.684 44.3473L169.446 50.2923L155.078 67.6319L113.959 63.1732L61.4444 48.806L11.9025 71.5953L16.3612 94.3846L1.99414 107.265L10.4162 126.091L3.48041 143.431L10.4162 172.165L40.1414 178.11L59.9581 205.358L56.9856 240.038L83.7382 241.524L116.436 271.744L164.491 265.304Z" fill="black" stroke="#DAAA63" strokeWidth="2"/>
</svg>
