<svg width="329" height="378" viewBox="0 0 329 378" fill="none" xmlns="http://www.w3.org/2000/svg">
<g id="Namhae">
<path d="M148.274 48.9243L130.566 14.3515L91.7768 1.70288L54.6743 24.4704C54.6743 24.4704 61.4202 57.3567 56.3608 53.9838C51.3014 50.6108 29.3772 52.2972 29.3772 52.2972L22.6313 104.578L1.55029 129.032L28.5339 190.588L49.6149 251.301L47.9284 287.561L38.6528 303.582L82.5012 336.469L122.977 333.096L124.663 285.874L156.706 264.793L183.69 273.226V334.782L212.36 367.668L254.522 348.274L281.505 376.101L302.586 363.452L288.251 338.998L315.235 302.739L308.489 257.204L311.862 218.415L295.84 190.588L265.484 180.47L215.733 192.275L176.944 216.729L165.982 187.215L139.841 154.329L122.133 95.3024L149.117 67.4755L148.274 48.9243Z" fill="black"/>
<path d="M275.603 37.9621L231.754 46.3945L196.338 100.362L210.673 157.702H288.251L327.04 169.507L314.392 133.248L322.824 102.048L284.035 74.2214L266.327 116.383L261.268 80.124L272.23 60.7295L275.603 37.9621Z" fill="black"/>
<path d="M148.274 48.9243L130.566 14.3515L91.7768 1.70288L54.6743 24.4704C54.6743 24.4704 61.4202 57.3567 56.3608 53.9838C51.3014 50.6108 29.3772 52.2972 29.3772 52.2972L22.6313 104.578L1.55029 129.032L28.5339 190.588L49.6149 251.301L47.9284 287.561L38.6528 303.582L82.5012 336.469L122.977 333.096L124.663 285.874L156.706 264.793L183.69 273.226V334.782L212.36 367.668L254.522 348.274L281.505 376.101L302.586 363.452L288.251 338.998L315.235 302.739L308.489 257.204L311.862 218.415L295.84 190.588L265.484 180.47L215.733 192.275L176.944 216.729L165.982 187.215L139.841 154.329L122.133 95.3024L149.117 67.4755L148.274 48.9243Z" stroke="#DAAA63" strokeWidth="2"/>
<path d="M275.603 37.9621L231.754 46.3945L196.338 100.362L210.673 157.702H288.251L327.04 169.507L314.392 133.248L322.824 102.048L284.035 74.2214L266.327 116.383L261.268 80.124L272.23 60.7295L275.603 37.9621Z" stroke="#DAAA63" strokeWidth="2"/>
</g>
</svg>
