<svg width="328" height="329" viewBox="0 0 328 329" fill="none" xmlns="http://www.w3.org/2000/svg">
<path id="Sacheon" d="M49.0632 16.0839L15.5624 11.7142C15.5624 11.7142 -2.64464 27.0081 1.72504 28.4646C6.09472 29.9212 32.3128 59.7807 32.3128 59.7807L27.9431 91.0968L41.7804 128.967L49.0632 178.49V206.893L79.651 238.938L92.0317 225.1L126.989 228.013L143.74 194.512L105.869 166.11L124.076 150.816L143.74 169.023L153.207 120.956L186.708 91.0968L168.501 148.631L164.131 185.045L180.882 193.784L158.305 222.187L173.599 234.568L155.392 268.069L187.436 303.026L239.144 327.059L240.601 308.852L283.569 221.459L306.146 217.089L300.32 173.392L325.081 147.903L326.538 135.522L288.667 111.489L305.418 83.0856L282.113 53.2262L228.948 72.8898L213.654 53.2262L183.067 37.9323L138.642 54.6828L110.967 1.51831H60.7157L49.0632 16.0839Z" fill="black" stroke="#DAAA63" strokeWidth="2"/>
</svg>
