<svg width="329" height="446" viewBox="0 0 329 446" fill="none" xmlns="http://www.w3.org/2000/svg">
<path id="Tongyeong" d="M281.528 105.578L254.46 133.323L226.039 150.24L217.242 172.571L238.896 179.338L259.873 184.751L274.084 165.127L288.294 133.999L301.152 121.142L281.528 105.578ZM196.264 168.511L175.287 176.631L182.73 210.466L226.715 257.834L260.55 215.879L223.332 201.669L196.264 168.511ZM313.332 214.526L295.061 232.797L310.625 273.398L327.543 255.128L313.332 214.526ZM296.415 301.143L284.911 339.038L306.565 318.06L296.415 301.143ZM274.761 16.9312L257.843 39.2621L259.197 70.3901L251.753 108.285L228.745 139.413L210.475 119.789L193.557 133.999L143.482 113.022L144.835 93.3977L190.174 89.3376L177.317 52.796L208.444 38.5855L224.008 13.5477L273.407 2.04395L274.761 16.9312ZM51.4514 155.654H3.40615L29.1205 189.488L46.0379 169.864L51.4514 155.654ZM74.4591 186.782L41.9777 193.548L81.9027 232.797L104.91 215.879L74.4591 186.782ZM88.6696 413.474L70.3989 416.181L74.4591 443.925L106.94 439.865L88.6696 413.474ZM12.2031 333.624L2.05273 351.895L27.7671 367.459L35.2108 350.542L12.2031 333.624Z" fill="black" stroke="#DAAA63" strokeWidth="2"/>
</svg>
