<svg width="329" height="307" viewBox="0 0 329 307" fill="none" xmlns="http://www.w3.org/2000/svg">
<path id="Uiryeong" d="M99.2724 296.604L78.4827 266.719L82.3807 225.14L52.4954 202.401L27.8075 225.14L1.82031 208.898V173.165L44.6992 146.528L87.5782 142.63L96.6737 101.051L100.572 52.3245L135.655 39.3309L182.432 7.49655L258.444 24.3882V1.64941L275.336 3.59848L310.419 32.1844L282.482 62.0697L277.935 93.2544L321.463 116.643L327.31 150.426L315.616 184.859L285.731 186.159L290.928 204.999L264.941 206.299L244.801 191.356L218.814 183.56L195.425 249.827L199.323 276.464L177.234 303.101L129.158 305.7L99.2724 296.604Z" fill="black" stroke="#DAAA63" strokeWidth="2"/>
</svg>
